<svg version="1.1" xmlns="http://www.w3.org/2000/svg" viewBox="0 0 1152.5420062029389 846.1508134735684" width="1152.5420062029389" height="846.1508134735684">
  <!-- svg-source:excalidraw -->
  
  <defs>
    <style class="style-fonts">
      @font-face {
        font-family: "Virgil";
        src: url("https://excalidraw.com/Virgil.woff2");
      }
      @font-face {
        font-family: "Cascadia";
        src: url("https://excalidraw.com/Cascadia.woff2");
      }
      @font-face {
        font-family: "Assistant";
        src: url("https://excalidraw.com/Assistant-Regular.woff2");
      }
    </style>
    
  </defs>
  <rect x="0" y="0" width="1152.5420062029389" height="846.1508134735684" fill="#ffffff"></rect><g stroke-linecap="round" transform="translate(462.4464572611746 343.42369939088894) rotate(0 103.7753293602268 38.8088958233468)"><path d="M0 0 L207.55 0 L207.55 77.62 L0 77.62" stroke="none" stroke-width="0" fill="#fff"></path><path d="M0 0 C42.55 0, 85.09 0, 207.55 0 M0 0 C50.22 0, 100.45 0, 207.55 0 M207.55 0 C207.55 18.54, 207.55 37.08, 207.55 77.62 M207.55 0 C207.55 29.05, 207.55 58.1, 207.55 77.62 M207.55 77.62 C137.61 77.62, 67.67 77.62, 0 77.62 M207.55 77.62 C128.7 77.62, 49.84 77.62, 0 77.62 M0 77.62 C0 57.53, 0 37.44, 0 0 M0 77.62 C0 54.3, 0 30.98, 0 0" stroke="#000000" stroke-width="2" fill="none"></path></g><g transform="translate(540.1280366214014 371.55201000983016) rotate(0 26.09375 10.680585204405588)"><text x="26.09375" y="0" font-family="Cascadia, Segoe UI Emoji" font-size="17.800975340675983px" fill="#000000" text-anchor="middle" style="white-space: pre;" direction="ltr" dominant-baseline="text-before-edge">Libro</text></g><g stroke-linecap="round" transform="translate(10 344.27404896937225) rotate(0 103.7753293602268 38.8088958233468)"><path d="M0 0 L207.55 0 L207.55 77.62 L0 77.62" stroke="none" stroke-width="0" fill="#fff"></path><path d="M0 0 C68.27 0, 136.54 0, 207.55 0 M0 0 C62.43 0, 124.85 0, 207.55 0 M207.55 0 C207.55 21.01, 207.55 42.03, 207.55 77.62 M207.55 0 C207.55 25.45, 207.55 50.91, 207.55 77.62 M207.55 77.62 C165 77.62, 122.46 77.62, 0 77.62 M207.55 77.62 C157.33 77.62, 107.1 77.62, 0 77.62 M0 77.62 C0 59.08, 0 40.53, 0 0 M0 77.62 C0 48.57, 0 19.52, 0 0" stroke="#000000" stroke-width="2" fill="none"></path></g><g transform="translate(87.6815793602268 372.40235958831346) rotate(0 26.09375 10.680585204405588)"><text x="26.09375" y="0" font-family="Cascadia, Segoe UI Emoji" font-size="17.800975340675983px" fill="#000000" text-anchor="middle" style="white-space: pre;" direction="ltr" dominant-baseline="text-before-edge">Autor</text></g><g stroke-linecap="round"><g transform="translate(218.4942046966671 382.1926950783792) rotate(0 37.38168347490796 -0.3361733245673122)"><path d="M0 0 C12.46 -0.11, 62.3 -0.56, 74.76 -0.67 M0 0 C12.46 -0.11, 62.3 -0.56, 74.76 -0.67" stroke="#1e1e1e" stroke-width="2" fill="none"></path></g></g><mask></mask><g stroke-linecap="round" transform="translate(292.5269045200316 351.228047501913) rotate(0 33.967300176635035 29.448999261064756)"><path d="M34.3 0.24 L69.43 31.75 L34.2 56.96 L1.71 30.92" stroke="none" stroke-width="0" fill="#fff" fill-rule="evenodd"></path><path d="M34 0 C45.59 8.9, 59.66 23.54, 67.93 30 M34 0 C45.26 8.72, 55.4 18.01, 67.93 30 M67.93 30 C56.13 41.6, 45.26 49.98, 34 58.9 M67.93 30 C56.86 38.78, 48.03 47.73, 34 58.9 M34 58.9 C19.03 48.44, 8.08 34.77, 0 30 M34 58.9 C26.19 53.05, 20.75 46.33, 0 30 M0 30 C10.37 20.9, 23.54 10.06, 34 0 M0 30 C9.28 23.01, 17.67 15.57, 34 0" stroke="#000000" stroke-width="1" fill="none"></path></g><g stroke-linecap="round"><g transform="translate(326.84251118273914 351.8129378169414) rotate(0 -0.1438764461977371 28.775289239529798)"><path d="M0 0 C-0.05 9.59, -0.24 47.96, -0.29 57.55 M0 0 C-0.05 9.59, -0.24 47.96, -0.29 57.55" stroke="#1e1e1e" stroke-width="2" fill="none"></path></g></g><mask></mask><g transform="translate(331.446557461064 364.18631218993926) rotate(0 10.071351233835458 13.956015281171943)" stroke="none"><path d="M0 0 C0.43 1.1, 2.3 1.97, 2.59 6.62 C2.88 11.27, 1.44 24.51, 1.73 27.91 C2.01 31.32, 3.6 27.62, 4.32 27.05 C5.04 26.47, 4.75 25.61, 6.04 24.46 C7.34 23.31, 9.74 21.44, 12.09 20.14 C14.44 18.85, 20.62 18.27, 20.14 16.69 C19.66 15.11, 11.46 12.76, 9.21 10.65 C6.95 8.54, 7.34 5.32, 6.62 4.03 C5.9 2.73, 5.18 3.07, 4.89 2.88" stroke="none" stroke-width="0" fill="#e9ecef" fill-rule="evenodd"></path><path fill="#1e1e1e" d="M 4.55,-2.02 Q 4.55,-2.02 5.30,-0.57 6.05,0.87 6.95,3.15 7.86,5.43 8.14,7.60 8.41,9.77 8.60,12.04 8.78,14.31 8.71,16.56 8.63,18.82 8.43,20.99 8.23,23.17 5.78,22.14 3.32,21.11 1.06,21.68 -1.19,22.24 0.71,20.31 2.62,18.37 5.08,16.83 7.55,15.28 9.62,13.84 11.69,12.40 14.00,11.62 16.31,10.85 14.95,13.21 13.59,15.57 13.56,18.08 13.53,20.60 10.91,19.60 8.29,18.60 6.49,17.38 4.69,16.17 3.49,14.35 2.29,12.54 1.23,10.42 0.16,8.30 1.29,9.24 2.43,10.18 1.33,9.59 0.22,9.01 -0.62,8.10 -1.48,7.20 -2.01,6.07 -2.53,4.94 -2.66,3.70 -2.80,2.46 -2.53,1.24 -2.26,0.02 -1.62,-1.04 -0.98,-2.11 -0.03,-2.91 0.91,-3.72 2.07,-4.18 3.23,-4.64 4.47,-4.71 5.72,-4.78 6.92,-4.45 8.12,-4.11 9.15,-3.41 10.19,-2.71 10.94,-1.72 11.70,-0.73 12.09,0.44 12.49,1.63 12.49,2.87 12.49,4.12 12.10,5.30 11.70,6.48 10.94,7.48 10.19,8.47 9.16,9.17 8.12,9.87 6.92,10.20 5.72,10.54 4.47,10.47 3.23,10.40 2.07,9.94 0.91,9.48 -0.03,8.67 -0.98,7.86 -1.62,6.79 -2.26,5.73 -2.53,4.51 -2.80,3.29 -2.66,2.05 -2.53,0.81 -2.01,-0.31 -1.48,-1.44 -0.62,-2.35 0.22,-3.25 1.32,-3.84 2.43,-4.42 3.66,-4.62 4.89,-4.83 6.12,-4.62 7.35,-4.42 7.35,-4.42 7.35,-4.42 10.58,0.20 13.82,4.82 16.52,6.16 19.23,7.50 21.44,9.23 23.65,10.96 21.61,9.58 19.57,8.20 22.29,9.74 25.01,11.27 25.49,14.83 25.97,18.38 23.77,21.17 21.56,23.97 19.40,24.65 17.24,25.34 14.47,26.99 11.70,28.64 9.93,30.50 8.16,32.37 6.25,33.43 4.34,34.49 1.15,33.97 -2.03,33.45 -3.59,30.27 -5.15,27.10 -5.04,24.89 -4.93,22.69 -4.52,20.42 -4.11,18.16 -3.84,15.99 -3.57,13.82 -3.39,11.63 -3.20,9.44 -3.30,7.26 -3.40,5.07 -3.98,3.55 -4.55,2.02 -4.73,1.44 -4.90,0.87 -4.94,0.27 -4.97,-0.32 -4.86,-0.91 -4.75,-1.50 -4.50,-2.05 -4.25,-2.59 -3.88,-3.06 -3.50,-3.54 -3.03,-3.90 -2.55,-4.27 -2.00,-4.52 -1.46,-4.76 -0.86,-4.87 -0.27,-4.97 0.32,-4.93 0.92,-4.89 1.49,-4.71 2.06,-4.53 2.57,-4.22 3.09,-3.90 3.51,-3.48 3.93,-3.05 4.24,-2.53 4.55,-2.02 4.55,-2.02 L 4.55,-2.02 Z"></path></g><g transform="translate(330.00779299908754 400.4431766317468) rotate(0 11.941745034404903 -18.416185113299036)" stroke="none"><path fill="#1e1e1e" d="M 2.54,0 Q 2.54,0 2.59,0.76 2.63,1.53 2.42,2.62 2.21,3.70 1.56,5.03 0.91,6.35 0.61,6.78 0.32,7.21 0.04,7.43 -0.23,7.66 -0.56,7.81 -0.88,7.95 -1.24,8.02 -1.59,8.09 -1.95,8.07 -2.31,8.05 -2.65,7.94 -2.99,7.84 -3.30,7.65 -3.61,7.47 -3.87,7.22 -4.12,6.97 -4.31,6.66 -4.50,6.35 -4.60,6.01 -4.71,5.67 -4.74,5.31 -4.76,4.95 -4.70,4.60 -4.64,4.24 -4.49,3.92 -4.34,3.59 -4.12,3.30 -3.90,3.02 -4.29,4.37 -4.67,5.72 -4.70,4.65 -4.73,3.59 -4.39,2.48 -4.04,1.37 -3.71,0.19 -3.38,-0.99 -3.16,-2.12 -2.94,-3.24 -2.76,-4.31 -2.57,-5.38 -1.43,-6.49 -0.29,-7.60 1.22,-7.96 2.74,-8.31 3.35,-8.56 3.96,-8.80 4.36,-8.96 4.76,-9.11 5.19,-9.16 5.62,-9.21 6.04,-9.15 6.47,-9.10 6.87,-8.95 7.27,-8.79 7.62,-8.55 7.97,-8.31 8.25,-7.98 8.54,-7.66 8.73,-7.28 8.93,-6.90 9.03,-6.49 9.14,-6.07 9.13,-5.64 9.13,-5.21 9.03,-4.80 8.93,-4.38 8.72,-4.00 8.52,-3.62 8.24,-3.30 7.95,-2.98 7.60,-2.74 7.25,-2.50 6.17,-1.65 5.09,-0.81 4.87,0.35 4.66,1.52 4.07,2.41 3.49,3.30 2.77,4.12 2.05,4.93 2.20,4.91 2.36,4.89 2.10,5.26 1.85,5.64 1.52,5.94 1.18,6.24 0.79,6.45 0.39,6.66 -0.04,6.77 -0.47,6.88 -0.92,6.89 -1.37,6.89 -1.81,6.79 -2.25,6.68 -2.65,6.47 -3.05,6.27 -3.39,5.97 -3.72,5.68 -3.98,5.31 -4.24,4.94 -4.40,4.52 -4.57,4.10 -4.62,3.66 -4.68,3.21 -4.63,2.76 -4.58,2.32 -4.42,1.90 -4.27,1.47 -2.68,0.53 -1.09,-0.41 -0.25,-1.28 0.57,-2.16 1.62,-3.06 2.68,-3.96 3.96,-4.84 5.24,-5.71 6.45,-6.37 7.66,-7.04 8.64,-8.02 9.62,-9.00 10.52,-10.05 11.42,-11.10 12.54,-11.89 13.67,-12.68 14.91,-13.31 16.15,-13.94 17.11,-15.13 18.08,-16.33 19.39,-17.56 20.69,-18.80 21.65,-19.63 22.60,-20.47 22.54,-18.95 22.48,-17.43 20.89,-18.22 19.29,-19.02 18.29,-19.71 17.29,-20.40 16.13,-21.85 14.98,-23.30 13.85,-24.71 12.71,-26.11 11.81,-27.16 10.90,-28.21 11.64,-27.41 12.38,-26.61 11.48,-27.29 10.57,-27.98 9.62,-28.72 8.66,-29.46 7.51,-30.66 6.36,-31.86 5.38,-32.85 4.40,-33.83 3.35,-34.44 2.31,-35.05 1.39,-35.75 0.47,-36.45 -1.42,-38.69 -3.31,-40.92 -3.44,-41.53 -3.57,-42.14 -3.49,-42.76 -3.41,-43.38 -3.14,-43.94 -2.87,-44.51 -2.44,-44.95 -2.00,-45.40 -1.44,-45.69 -0.89,-45.97 -0.27,-46.06 0.34,-46.16 0.95,-46.05 1.57,-45.94 2.12,-45.64 2.66,-45.33 3.09,-44.88 3.51,-44.42 3.76,-43.84 4.02,-43.27 4.08,-42.65 4.13,-42.03 3.99,-41.42 3.85,-40.81 3.52,-40.28 3.19,-39.75 2.71,-39.36 2.23,-38.96 1.64,-38.74 1.06,-38.51 0.43,-38.49 -0.18,-38.46 -0.78,-38.64 -1.38,-38.81 -1.89,-39.17 -2.40,-39.53 -2.77,-40.03 -3.14,-40.54 -3.34,-41.13 -3.53,-41.73 -3.52,-42.35 -3.51,-42.97 -3.30,-43.56 -3.09,-44.15 -2.71,-44.64 -2.32,-45.14 -1.80,-45.48 -1.28,-45.82 -0.67,-45.98 -0.07,-46.14 0.54,-46.10 1.17,-46.05 1.74,-45.81 2.32,-45.57 2.79,-45.16 3.26,-44.75 3.58,-44.21 3.89,-43.67 3.89,-43.67 3.89,-43.67 4.72,-42.93 5.55,-42.19 6.74,-41.27 7.93,-40.36 9.44,-39.17 10.95,-37.98 11.89,-36.87 12.83,-35.76 13.84,-35.06 14.85,-34.37 15.92,-33.40 17.00,-32.42 17.68,-31.46 18.37,-30.51 19.03,-29.48 19.70,-28.46 20.60,-27.66 21.50,-26.86 22.26,-26.09 23.03,-25.33 24.08,-24.73 25.13,-24.12 26.29,-23.45 27.45,-22.78 28.19,-22.01 28.94,-21.24 29.27,-20.00 29.60,-18.76 29.00,-17.25 28.40,-15.74 27.22,-14.60 26.03,-13.46 25.14,-12.75 24.26,-12.04 23.54,-10.98 22.82,-9.93 21.82,-9.08 20.83,-8.22 19.68,-7.53 18.53,-6.83 17.52,-6.47 16.51,-6.12 15.77,-4.92 15.03,-3.72 14.00,-2.76 12.96,-1.80 11.99,-1.27 11.02,-0.74 9.91,-0.10 8.80,0.52 7.51,1.52 6.22,2.51 5.09,3.37 3.95,4.24 3.14,4.94 2.34,5.64 1.14,6.20 -0.05,6.76 1.15,5.83 2.36,4.89 2.10,5.26 1.85,5.64 1.52,5.94 1.18,6.24 0.79,6.45 0.39,6.66 -0.04,6.77 -0.47,6.88 -0.92,6.89 -1.37,6.89 -1.81,6.79 -2.25,6.68 -2.65,6.48 -3.05,6.27 -3.39,5.97 -3.72,5.68 -3.98,5.31 -4.24,4.94 -4.40,4.52 -4.57,4.10 -4.62,3.66 -4.68,3.21 -4.63,2.76 -4.58,2.32 -4.42,1.90 -4.27,1.47 -4.13,1.29 -3.99,1.11 -3.32,0.21 -2.64,-0.68 -1.92,-1.95 -1.20,-3.22 -0.68,-4.38 -0.15,-5.53 0.81,-6.45 1.79,-7.36 2.87,-8.08 3.96,-8.80 4.36,-8.96 4.76,-9.11 5.19,-9.16 5.61,-9.21 6.04,-9.15 6.47,-9.10 6.87,-8.95 7.27,-8.80 7.62,-8.55 7.97,-8.31 8.25,-7.98 8.54,-7.66 8.73,-7.28 8.93,-6.90 9.03,-6.49 9.14,-6.07 9.13,-5.64 9.13,-5.21 9.03,-4.80 8.93,-4.38 8.72,-4.00 8.52,-3.62 8.24,-3.30 7.95,-2.98 7.60,-2.74 7.25,-2.50 6.68,-2.30 6.11,-2.11 4.16,-1.61 2.20,-1.11 2.93,-2.05 3.66,-2.99 3.31,-1.78 2.95,-0.56 2.59,0.55 2.23,1.67 1.53,2.80 0.83,3.92 0.58,5.57 0.32,7.21 0.04,7.43 -0.23,7.66 -0.56,7.81 -0.88,7.95 -1.24,8.02 -1.59,8.09 -1.95,8.07 -2.31,8.05 -2.65,7.94 -2.99,7.84 -3.30,7.65 -3.61,7.47 -3.87,7.22 -4.12,6.97 -4.31,6.66 -4.50,6.35 -4.60,6.01 -4.71,5.67 -4.74,5.31 -4.76,4.95 -4.70,4.60 -4.64,4.24 -4.49,3.92 -4.34,3.59 -4.12,3.30 -3.90,3.02 -3.27,2.23 -2.63,1.44 -2.59,0.72 -2.54,0 -2.51,-0.30 -2.47,-0.60 -2.36,-0.89 -2.25,-1.18 -2.08,-1.43 -1.90,-1.68 -1.67,-1.89 -1.44,-2.09 -1.17,-2.23 -0.90,-2.38 -0.60,-2.45 -0.30,-2.52 0.00,-2.52 0.30,-2.52 0.60,-2.45 0.90,-2.38 1.17,-2.23 1.44,-2.09 1.67,-1.89 1.90,-1.68 2.08,-1.43 2.25,-1.18 2.36,-0.89 2.47,-0.60 2.51,-0.30 2.54,0.00 2.54,0.00 L 2.54,0 Z"></path></g><g stroke-linecap="round"><g transform="translate(326.5547582903441 352.1006907093368) rotate(0 16.545791312729534 14.819273958357826)"><path d="M0 0 C5.52 4.94, 27.58 24.7, 33.09 29.64 M0 0 C5.52 4.94, 27.58 24.7, 33.09 29.64" stroke="#1e1e1e" stroke-width="1" fill="none"></path></g></g><mask></mask><g stroke-linecap="round"><g transform="translate(326.8425111827396 409.0757634036058) rotate(0 17.409049989915502 -13.524385942579016)"><path d="M0 0 C5.8 -4.51, 29.02 -22.54, 34.82 -27.05 M0 0 C5.8 -4.51, 29.02 -22.54, 34.82 -27.05" stroke="#1e1e1e" stroke-width="1" fill="none"></path></g></g><mask></mask><g stroke-linecap="round"><g transform="translate(327.41801696753055 351.2374320321509) rotate(0 17.265173543717765 15.250903296950781)"><path d="M0 0 C5.76 5.08, 28.78 25.42, 34.53 30.5 M0 0 C5.76 5.08, 28.78 25.42, 34.53 30.5" stroke="#1e1e1e" stroke-width="1" fill="none"></path></g></g><mask></mask><g stroke-linecap="round"><g transform="translate(336.1840903791126 381.85147615213003) rotate(0 57.2491598542947 -0.1649114924618118)"><path d="M0 0 C19.08 -0.05, 95.42 -0.27, 114.5 -0.33 M0 0 C19.08 -0.05, 95.42 -0.27, 114.5 -0.33" stroke="#1e1e1e" stroke-width="2" fill="none"></path></g></g><mask></mask><g stroke-linecap="round" transform="translate(450.68241085629006 377.5525831305804) rotate(0 5.284989705367025 4.680990881896577)"><path d="M10.57 4.68 C10.57 4.95, 10.54 5.23, 10.49 5.49 C10.44 5.76, 10.36 6.03, 10.25 6.28 C10.15 6.54, 10.01 6.79, 9.86 7.02 C9.71 7.26, 9.53 7.48, 9.33 7.69 C9.14 7.9, 8.92 8.09, 8.68 8.27 C8.45 8.44, 8.19 8.6, 7.93 8.73 C7.66 8.87, 7.38 8.99, 7.09 9.08 C6.81 9.17, 6.5 9.24, 6.2 9.29 C5.9 9.34, 5.59 9.36, 5.28 9.36 C4.98 9.36, 4.67 9.34, 4.37 9.29 C4.07 9.24, 3.76 9.17, 3.48 9.08 C3.19 8.99, 2.91 8.87, 2.64 8.73 C2.38 8.6, 2.12 8.44, 1.89 8.27 C1.65 8.09, 1.43 7.9, 1.24 7.69 C1.04 7.48, 0.86 7.26, 0.71 7.02 C0.56 6.79, 0.42 6.54, 0.32 6.28 C0.21 6.03, 0.13 5.76, 0.08 5.49 C0.03 5.23, 0 4.95, 0 4.68 C0 4.41, 0.03 4.13, 0.08 3.87 C0.13 3.6, 0.21 3.33, 0.32 3.08 C0.42 2.83, 0.56 2.58, 0.71 2.34 C0.86 2.11, 1.04 1.88, 1.24 1.67 C1.43 1.46, 1.65 1.27, 1.89 1.1 C2.12 0.92, 2.38 0.76, 2.64 0.63 C2.91 0.49, 3.19 0.37, 3.48 0.28 C3.76 0.19, 4.07 0.12, 4.37 0.07 C4.67 0.02, 4.98 0, 5.28 0 C5.59 0, 5.9 0.02, 6.2 0.07 C6.5 0.12, 6.81 0.19, 7.09 0.28 C7.38 0.37, 7.66 0.49, 7.93 0.63 C8.19 0.76, 8.45 0.92, 8.68 1.1 C8.92 1.27, 9.14 1.46, 9.33 1.67 C9.53 1.88, 9.71 2.11, 9.86 2.34 C10.01 2.58, 10.15 2.83, 10.25 3.08 C10.36 3.33, 10.44 3.6, 10.49 3.87 C10.54 4.13, 10.56 4.55, 10.57 4.68 C10.58 4.82, 10.58 4.55, 10.57 4.68" stroke="none" stroke-width="0" fill="#e9ecef"></path><path d="M10.57 4.68 C10.57 4.95, 10.54 5.23, 10.49 5.49 C10.44 5.76, 10.36 6.03, 10.25 6.28 C10.15 6.54, 10.01 6.79, 9.86 7.02 C9.71 7.26, 9.53 7.48, 9.33 7.69 C9.14 7.9, 8.92 8.09, 8.68 8.27 C8.45 8.44, 8.19 8.6, 7.93 8.73 C7.66 8.87, 7.38 8.99, 7.09 9.08 C6.81 9.17, 6.5 9.24, 6.2 9.29 C5.9 9.34, 5.59 9.36, 5.28 9.36 C4.98 9.36, 4.67 9.34, 4.37 9.29 C4.07 9.24, 3.76 9.17, 3.48 9.08 C3.19 8.99, 2.91 8.87, 2.64 8.73 C2.38 8.6, 2.12 8.44, 1.89 8.27 C1.65 8.09, 1.43 7.9, 1.24 7.69 C1.04 7.48, 0.86 7.26, 0.71 7.02 C0.56 6.79, 0.42 6.54, 0.32 6.28 C0.21 6.03, 0.13 5.76, 0.08 5.49 C0.03 5.23, 0 4.95, 0 4.68 C0 4.41, 0.03 4.13, 0.08 3.87 C0.13 3.6, 0.21 3.33, 0.32 3.08 C0.42 2.83, 0.56 2.58, 0.71 2.34 C0.86 2.11, 1.04 1.88, 1.24 1.67 C1.43 1.46, 1.65 1.27, 1.89 1.1 C2.12 0.92, 2.38 0.76, 2.64 0.63 C2.91 0.49, 3.19 0.37, 3.48 0.28 C3.76 0.19, 4.07 0.12, 4.37 0.07 C4.67 0.02, 4.98 0, 5.28 0 C5.59 0, 5.9 0.02, 6.2 0.07 C6.5 0.12, 6.81 0.19, 7.09 0.28 C7.38 0.37, 7.66 0.49, 7.93 0.63 C8.19 0.76, 8.45 0.92, 8.68 1.1 C8.92 1.27, 9.14 1.46, 9.33 1.67 C9.53 1.88, 9.71 2.11, 9.86 2.34 C10.01 2.58, 10.15 2.83, 10.25 3.08 C10.36 3.33, 10.44 3.6, 10.49 3.87 C10.54 4.13, 10.56 4.55, 10.57 4.68 C10.58 4.82, 10.58 4.55, 10.57 4.68" stroke="#1e1e1e" stroke-width="2" fill="none"></path></g><g transform="translate(293.03165473362424 331.48647360502844) rotate(0 32.66666793823242 9.599999999999994)"><text x="0" y="0" font-family="Cascadia, Segoe UI Emoji" font-size="16px" fill="#1e1e1e" text-anchor="start" style="white-space: pre;" direction="ltr" dominant-baseline="text-before-edge">Escribe</text></g><g stroke-linecap="round" transform="translate(455.47105146348395 758.533021587562) rotate(0 103.7753293602268 38.8088958233468)"><path d="M0 0 L207.55 0 L207.55 77.62 L0 77.62" stroke="none" stroke-width="0" fill="#fff"></path><path d="M0 0 C56.19 0, 112.38 0, 207.55 0 M0 0 C68.06 0, 136.12 0, 207.55 0 M207.55 0 C207.55 15.91, 207.55 31.82, 207.55 77.62 M207.55 0 C207.55 18.78, 207.55 37.56, 207.55 77.62 M207.55 77.62 C157.97 77.62, 108.39 77.62, 0 77.62 M207.55 77.62 C129.87 77.62, 52.19 77.62, 0 77.62 M0 77.62 C0 51.46, 0 25.31, 0 0 M0 77.62 C0 48.13, 0 18.64, 0 0" stroke="#000000" stroke-width="2" fill="none"></path></g><g transform="translate(522.7151308237108 786.6613322065032) rotate(0 36.53125 10.680585204405588)"><text x="36.53125" y="0" font-family="Cascadia, Segoe UI Emoji" font-size="17.800975340675983px" fill="#000000" text-anchor="middle" style="white-space: pre;" direction="ltr" dominant-baseline="text-before-edge">Edicion</text></g><g stroke-linecap="round" transform="translate(531.2191300188315 603.7517715278445) rotate(268.430645195251 33.967300176635035 29.448999261064728)"><path d="M35.77 -0.18 L69.78 28.35 L35.1 60.39 L-0.49 31.99" stroke="none" stroke-width="0" fill="#fff" fill-rule="evenodd"></path><path d="M34 0 C47.62 10.9, 62.29 23.86, 67.93 30 M34 0 C43.69 9.3, 54.87 17.01, 67.93 30 M67.93 30 C61.54 37.5, 52.61 41.44, 34 58.9 M67.93 30 C57.61 39.24, 47.89 47.42, 34 58.9 M34 58.9 C23.61 48.45, 10.23 37.67, 0 30 M34 58.9 C23.71 51.27, 14.42 42.95, 0 30 M0 30 C6.7 23.07, 17 17.11, 34 0 M0 30 C13.61 18.07, 24.28 8.69, 34 0" stroke="#000000" stroke-width="1" fill="none"></path></g><g stroke-linecap="round"><g transform="translate(565.2359215286997 604.2235606938007) rotate(268.430645195251 -0.1438764461977371 28.775289239529798)"><path d="M0 0 C-0.05 9.59, -0.24 47.96, -0.29 57.55 M0 0 C-0.05 9.59, -0.24 47.96, -0.29 57.55" stroke="#1e1e1e" stroke-width="2" fill="none"></path></g></g><mask></mask><g transform="translate(552.169856490229 604.2961051235379) rotate(268.430645195251 10.071351233835458 13.956015281171972)" stroke="none"><path d="M0 0 C0.43 1.1, 2.3 1.97, 2.59 6.62 C2.88 11.27, 1.44 24.51, 1.73 27.91 C2.01 31.32, 3.6 27.62, 4.32 27.05 C5.04 26.47, 4.75 25.61, 6.04 24.46 C7.34 23.31, 9.74 21.44, 12.09 20.14 C14.44 18.85, 20.62 18.27, 20.14 16.69 C19.66 15.11, 11.46 12.76, 9.21 10.65 C6.95 8.54, 7.34 5.32, 6.62 4.03 C5.9 2.73, 5.18 3.07, 4.89 2.88" stroke="none" stroke-width="0" fill="#e9ecef" fill-rule="evenodd"></path><path fill="#1e1e1e" d="M 4.55,-2.02 Q 4.55,-2.02 5.30,-0.57 6.05,0.87 6.95,3.15 7.86,5.43 8.14,7.60 8.41,9.77 8.60,12.04 8.78,14.31 8.71,16.56 8.63,18.82 8.43,20.99 8.23,23.17 5.78,22.14 3.32,21.11 1.06,21.68 -1.19,22.24 0.71,20.31 2.62,18.37 5.08,16.83 7.55,15.28 9.62,13.84 11.69,12.40 14.00,11.62 16.31,10.85 14.95,13.21 13.59,15.57 13.56,18.08 13.53,20.60 10.91,19.60 8.29,18.60 6.49,17.38 4.69,16.17 3.49,14.35 2.29,12.54 1.23,10.42 0.16,8.30 1.37,9.26 2.57,10.22 1.47,9.64 0.37,9.06 -0.48,8.15 -1.34,7.25 -1.86,6.12 -2.38,4.98 -2.52,3.74 -2.65,2.50 -2.39,1.29 -2.12,0.07 -1.48,-0.99 -0.83,-2.06 0.11,-2.86 1.06,-3.67 2.22,-4.13 3.37,-4.60 4.62,-4.66 5.86,-4.73 7.07,-4.40 8.27,-4.06 9.30,-3.36 10.33,-2.66 11.09,-1.67 11.84,-0.68 12.24,0.49 12.64,1.67 12.64,2.92 12.64,4.17 12.24,5.35 11.84,6.53 11.09,7.52 10.33,8.52 9.30,9.22 8.27,9.92 7.07,10.25 5.86,10.58 4.62,10.52 3.37,10.45 2.22,9.99 1.06,9.52 0.11,8.72 -0.83,7.91 -1.48,6.84 -2.12,5.77 -2.39,4.56 -2.65,3.34 -2.52,2.10 -2.38,0.86 -1.86,-0.26 -1.34,-1.39 -0.48,-2.30 0.37,-3.20 1.47,-3.79 2.57,-4.37 3.80,-4.57 5.03,-4.78 6.26,-4.57 7.49,-4.37 7.49,-4.37 7.49,-4.37 10.65,0.22 13.82,4.82 16.52,6.16 19.23,7.50 21.44,9.23 23.65,10.96 21.61,9.58 19.57,8.20 22.29,9.74 25.01,11.27 25.49,14.83 25.97,18.38 23.77,21.17 21.56,23.97 19.40,24.65 17.24,25.34 14.47,26.99 11.70,28.64 9.93,30.50 8.16,32.37 6.25,33.43 4.34,34.49 1.15,33.97 -2.03,33.45 -3.59,30.27 -5.15,27.10 -5.04,24.89 -4.93,22.69 -4.52,20.42 -4.11,18.16 -3.84,15.99 -3.57,13.82 -3.39,11.63 -3.20,9.44 -3.30,7.26 -3.40,5.07 -3.98,3.55 -4.55,2.02 -4.73,1.44 -4.90,0.87 -4.94,0.27 -4.97,-0.32 -4.86,-0.91 -4.75,-1.50 -4.50,-2.05 -4.25,-2.59 -3.88,-3.06 -3.50,-3.54 -3.03,-3.90 -2.55,-4.27 -2.00,-4.52 -1.46,-4.76 -0.86,-4.87 -0.27,-4.97 0.32,-4.93 0.92,-4.89 1.49,-4.71 2.06,-4.53 2.57,-4.22 3.09,-3.90 3.51,-3.48 3.93,-3.05 4.24,-2.53 4.55,-2.02 4.55,-2.02 L 4.55,-2.02 Z"></path></g><g transform="translate(554.1708485979725 636.1304488498308) rotate(268.430645195251 11.941745034404903 -18.416185113299036)" stroke="none"><path fill="#1e1e1e" d="M 2.54,0 Q 2.54,0 2.59,0.76 2.63,1.53 2.42,2.62 2.21,3.70 1.56,5.03 0.91,6.35 0.61,6.78 0.32,7.21 0.04,7.43 -0.23,7.66 -0.56,7.81 -0.88,7.95 -1.24,8.02 -1.59,8.09 -1.95,8.07 -2.31,8.05 -2.65,7.94 -2.99,7.84 -3.30,7.65 -3.61,7.47 -3.87,7.22 -4.12,6.97 -4.31,6.66 -4.50,6.35 -4.60,6.01 -4.71,5.67 -4.74,5.31 -4.76,4.95 -4.70,4.60 -4.64,4.24 -4.49,3.92 -4.34,3.59 -4.12,3.30 -3.90,3.02 -4.29,4.37 -4.67,5.72 -4.70,4.65 -4.73,3.59 -4.39,2.48 -4.04,1.37 -3.71,0.19 -3.38,-0.99 -3.16,-2.12 -2.94,-3.24 -2.76,-4.31 -2.57,-5.38 -1.43,-6.49 -0.29,-7.60 1.22,-7.96 2.74,-8.31 3.35,-8.56 3.96,-8.80 4.36,-8.96 4.76,-9.11 5.19,-9.16 5.62,-9.21 6.04,-9.15 6.47,-9.10 6.87,-8.95 7.27,-8.79 7.62,-8.55 7.97,-8.31 8.25,-7.98 8.54,-7.66 8.73,-7.28 8.93,-6.90 9.03,-6.49 9.14,-6.07 9.13,-5.64 9.13,-5.21 9.03,-4.80 8.93,-4.38 8.72,-4.00 8.52,-3.62 8.24,-3.30 7.95,-2.98 7.60,-2.74 7.25,-2.50 6.17,-1.65 5.09,-0.81 4.87,0.35 4.66,1.52 4.07,2.41 3.49,3.30 2.77,4.12 2.05,4.93 2.20,4.91 2.36,4.89 2.10,5.26 1.85,5.64 1.52,5.94 1.18,6.24 0.79,6.45 0.39,6.66 -0.04,6.77 -0.47,6.88 -0.92,6.89 -1.37,6.89 -1.81,6.79 -2.25,6.68 -2.65,6.47 -3.05,6.27 -3.39,5.97 -3.72,5.68 -3.98,5.31 -4.24,4.94 -4.40,4.52 -4.57,4.10 -4.62,3.66 -4.68,3.21 -4.63,2.76 -4.58,2.32 -4.42,1.90 -4.27,1.47 -2.68,0.53 -1.09,-0.41 -0.25,-1.28 0.57,-2.16 1.62,-3.06 2.68,-3.96 3.96,-4.84 5.24,-5.71 6.45,-6.37 7.66,-7.04 8.64,-8.02 9.62,-9.00 10.52,-10.05 11.42,-11.10 12.54,-11.89 13.67,-12.68 14.91,-13.31 16.15,-13.94 17.11,-15.13 18.08,-16.33 19.39,-17.56 20.69,-18.80 21.65,-19.63 22.60,-20.47 22.54,-18.95 22.48,-17.43 20.89,-18.22 19.29,-19.02 18.29,-19.71 17.29,-20.40 16.13,-21.85 14.98,-23.30 13.85,-24.71 12.71,-26.11 11.81,-27.16 10.90,-28.21 11.64,-27.41 12.38,-26.61 11.48,-27.29 10.57,-27.98 9.62,-28.72 8.66,-29.46 7.51,-30.66 6.36,-31.86 5.38,-32.85 4.40,-33.83 3.35,-34.44 2.31,-35.05 1.39,-35.75 0.47,-36.45 -1.40,-38.65 -3.29,-40.84 -3.41,-41.46 -3.54,-42.07 -3.46,-42.69 -3.38,-43.31 -3.11,-43.87 -2.84,-44.43 -2.41,-44.88 -1.97,-45.33 -1.42,-45.61 -0.86,-45.90 -0.24,-45.99 0.37,-46.08 0.98,-45.97 1.60,-45.86 2.14,-45.56 2.69,-45.26 3.11,-44.80 3.54,-44.34 3.79,-43.77 4.04,-43.20 4.10,-42.58 4.16,-41.96 4.02,-41.35 3.88,-40.74 3.55,-40.21 3.22,-39.68 2.74,-39.28 2.25,-38.89 1.67,-38.66 1.09,-38.44 0.46,-38.42 -0.15,-38.39 -0.75,-38.57 -1.35,-38.74 -1.86,-39.10 -2.37,-39.46 -2.74,-39.96 -3.12,-40.46 -3.31,-41.06 -3.50,-41.65 -3.49,-42.28 -3.48,-42.90 -3.27,-43.49 -3.06,-44.08 -2.68,-44.57 -2.29,-45.06 -1.77,-45.41 -1.25,-45.75 -0.65,-45.91 -0.04,-46.07 0.57,-46.02 1.20,-45.98 1.77,-45.74 2.35,-45.50 2.82,-45.09 3.29,-44.68 3.60,-44.14 3.92,-43.60 3.92,-43.60 3.92,-43.60 4.74,-42.89 5.55,-42.19 6.74,-41.27 7.93,-40.36 9.44,-39.17 10.95,-37.98 11.89,-36.87 12.83,-35.76 13.84,-35.06 14.85,-34.37 15.92,-33.40 17.00,-32.42 17.68,-31.46 18.37,-30.51 19.03,-29.48 19.70,-28.46 20.60,-27.66 21.50,-26.86 22.26,-26.09 23.03,-25.33 24.08,-24.73 25.13,-24.12 26.29,-23.45 27.45,-22.78 28.19,-22.01 28.94,-21.24 29.27,-20.00 29.60,-18.76 29.00,-17.25 28.40,-15.74 27.22,-14.60 26.03,-13.46 25.14,-12.75 24.26,-12.04 23.54,-10.98 22.82,-9.93 21.82,-9.08 20.83,-8.22 19.68,-7.53 18.53,-6.83 17.52,-6.47 16.51,-6.12 15.77,-4.92 15.03,-3.72 14.00,-2.76 12.96,-1.80 11.99,-1.27 11.02,-0.74 9.91,-0.10 8.80,0.52 7.51,1.52 6.22,2.51 5.09,3.37 3.95,4.24 3.14,4.94 2.34,5.64 1.14,6.20 -0.05,6.76 1.15,5.83 2.36,4.89 2.10,5.26 1.85,5.64 1.52,5.94 1.18,6.24 0.79,6.45 0.39,6.66 -0.04,6.77 -0.47,6.88 -0.92,6.89 -1.37,6.89 -1.81,6.79 -2.25,6.68 -2.65,6.48 -3.05,6.27 -3.39,5.97 -3.72,5.68 -3.98,5.31 -4.24,4.94 -4.40,4.52 -4.57,4.10 -4.62,3.66 -4.68,3.21 -4.63,2.76 -4.58,2.32 -4.42,1.90 -4.27,1.47 -4.13,1.29 -3.99,1.11 -3.32,0.21 -2.64,-0.68 -1.92,-1.95 -1.20,-3.22 -0.68,-4.38 -0.15,-5.53 0.81,-6.45 1.79,-7.36 2.87,-8.08 3.96,-8.80 4.36,-8.96 4.76,-9.11 5.19,-9.16 5.61,-9.21 6.04,-9.15 6.47,-9.10 6.87,-8.95 7.27,-8.80 7.62,-8.55 7.97,-8.31 8.25,-7.98 8.54,-7.66 8.73,-7.28 8.93,-6.90 9.03,-6.49 9.14,-6.07 9.13,-5.64 9.13,-5.21 9.03,-4.80 8.93,-4.38 8.72,-4.00 8.52,-3.62 8.24,-3.30 7.95,-2.98 7.60,-2.74 7.25,-2.50 6.68,-2.30 6.11,-2.11 4.16,-1.61 2.20,-1.11 2.93,-2.05 3.66,-2.99 3.31,-1.78 2.95,-0.56 2.59,0.55 2.23,1.67 1.53,2.80 0.83,3.92 0.58,5.57 0.32,7.21 0.04,7.43 -0.23,7.66 -0.56,7.81 -0.88,7.95 -1.24,8.02 -1.59,8.09 -1.95,8.07 -2.31,8.05 -2.65,7.94 -2.99,7.84 -3.30,7.65 -3.61,7.47 -3.87,7.22 -4.12,6.97 -4.31,6.66 -4.50,6.35 -4.60,6.01 -4.71,5.67 -4.74,5.31 -4.76,4.95 -4.70,4.60 -4.64,4.24 -4.49,3.92 -4.34,3.59 -4.12,3.30 -3.90,3.02 -3.27,2.23 -2.63,1.44 -2.59,0.72 -2.54,0 -2.51,-0.30 -2.47,-0.60 -2.36,-0.89 -2.25,-1.18 -2.08,-1.43 -1.90,-1.68 -1.67,-1.89 -1.44,-2.09 -1.17,-2.23 -0.90,-2.38 -0.60,-2.45 -0.30,-2.52 0.00,-2.52 0.30,-2.52 0.60,-2.45 0.90,-2.38 1.17,-2.23 1.44,-2.09 1.67,-1.89 1.90,-1.68 2.08,-1.43 2.25,-1.18 2.36,-0.89 2.47,-0.60 2.51,-0.30 2.54,0.00 2.54,0.00 L 2.54,0 Z"></path></g><g stroke-linecap="round"><g transform="translate(534.4339192856696 602.1581458444775) rotate(268.430645195251 16.545791312729534 14.819273958357826)"><path d="M0 0 C5.52 4.94, 27.58 24.7, 33.09 29.64 M0 0 C5.52 4.94, 27.58 24.7, 33.09 29.64" stroke="#1e1e1e" stroke-width="1" fill="none"></path></g></g><mask></mask><g stroke-linecap="round"><g transform="translate(562.1598112016454 628.5670978767312) rotate(268.430645195251 17.409049989915502 -13.524385942578988)"><path d="M0 0 C5.8 -4.51, 29.02 -22.54, 34.82 -27.05 M0 0 C5.8 -4.51, 29.02 -22.54, 34.82 -27.05" stroke="#1e1e1e" stroke-width="1" fill="none"></path></g></g><mask></mask><g stroke-linecap="round"><g transform="translate(533.2397258567653 600.1562902621577) rotate(268.430645195251 17.265173543717765 15.25090329695081)"><path d="M0 0 C5.76 5.08, 28.78 25.42, 34.53 30.5 M0 0 C5.76 5.08, 28.78 25.42, 34.53 30.5" stroke="#1e1e1e" stroke-width="1" fill="none"></path></g></g><mask></mask><g stroke-linecap="round"><g transform="translate(565.1784703373255 758.8560275139544) rotate(0 0.47475379607340074 -47.00062581128526)"><path d="M0 0 C0.16 -15.67, 0.79 -78.33, 0.95 -94 M0 0 C0.16 -15.67, 0.79 -78.33, 0.95 -94" stroke="#1e1e1e" stroke-width="2" fill="none"></path></g></g><mask></mask><g stroke-linecap="round"><g transform="translate(565.1347773464927 602.3776785247385) rotate(0 0 -90.26595770969499)"><path d="M0 0 C0 -30.09, 0 -150.44, 0 -180.53 M0 0 C0 -30.09, 0 -150.44, 0 -180.53" stroke="#1e1e1e" stroke-width="2" fill="none"></path></g></g><mask></mask><g stroke-linecap="round" transform="translate(559.8497882126526 421.89184079463115) rotate(0 5.284989705367025 4.680990881896577)"><path d="M10.57 4.68 C10.57 4.95, 10.54 5.23, 10.49 5.49 C10.44 5.76, 10.36 6.03, 10.25 6.28 C10.15 6.54, 10.01 6.79, 9.86 7.02 C9.71 7.26, 9.53 7.48, 9.33 7.69 C9.14 7.9, 8.92 8.09, 8.68 8.27 C8.45 8.44, 8.19 8.6, 7.93 8.73 C7.66 8.87, 7.38 8.99, 7.09 9.08 C6.81 9.17, 6.5 9.24, 6.2 9.29 C5.9 9.34, 5.59 9.36, 5.28 9.36 C4.98 9.36, 4.67 9.34, 4.37 9.29 C4.07 9.24, 3.76 9.17, 3.48 9.08 C3.19 8.99, 2.91 8.87, 2.64 8.73 C2.38 8.6, 2.12 8.44, 1.89 8.27 C1.65 8.09, 1.43 7.9, 1.24 7.69 C1.04 7.48, 0.86 7.26, 0.71 7.02 C0.56 6.79, 0.42 6.54, 0.32 6.28 C0.21 6.03, 0.13 5.76, 0.08 5.49 C0.03 5.23, 0 4.95, 0 4.68 C0 4.41, 0.03 4.13, 0.08 3.87 C0.13 3.6, 0.21 3.33, 0.32 3.08 C0.42 2.83, 0.56 2.58, 0.71 2.34 C0.86 2.11, 1.04 1.88, 1.24 1.67 C1.43 1.46, 1.65 1.27, 1.89 1.1 C2.12 0.92, 2.38 0.76, 2.64 0.63 C2.91 0.49, 3.19 0.37, 3.48 0.28 C3.76 0.19, 4.07 0.12, 4.37 0.07 C4.67 0.02, 4.98 0, 5.28 0 C5.59 0, 5.9 0.02, 6.2 0.07 C6.5 0.12, 6.81 0.19, 7.09 0.28 C7.38 0.37, 7.66 0.49, 7.93 0.63 C8.19 0.76, 8.45 0.92, 8.68 1.1 C8.92 1.27, 9.14 1.46, 9.33 1.67 C9.53 1.88, 9.71 2.11, 9.86 2.34 C10.01 2.58, 10.15 2.83, 10.25 3.08 C10.36 3.33, 10.44 3.6, 10.49 3.87 C10.54 4.13, 10.56 4.55, 10.57 4.68 C10.58 4.82, 10.58 4.55, 10.57 4.68" stroke="none" stroke-width="0" fill="#e9ecef"></path><path d="M10.57 4.68 C10.57 4.95, 10.54 5.23, 10.49 5.49 C10.44 5.76, 10.36 6.03, 10.25 6.28 C10.15 6.54, 10.01 6.79, 9.86 7.02 C9.71 7.26, 9.53 7.48, 9.33 7.69 C9.14 7.9, 8.92 8.09, 8.68 8.27 C8.45 8.44, 8.19 8.6, 7.93 8.73 C7.66 8.87, 7.38 8.99, 7.09 9.08 C6.81 9.17, 6.5 9.24, 6.2 9.29 C5.9 9.34, 5.59 9.36, 5.28 9.36 C4.98 9.36, 4.67 9.34, 4.37 9.29 C4.07 9.24, 3.76 9.17, 3.48 9.08 C3.19 8.99, 2.91 8.87, 2.64 8.73 C2.38 8.6, 2.12 8.44, 1.89 8.27 C1.65 8.09, 1.43 7.9, 1.24 7.69 C1.04 7.48, 0.86 7.26, 0.71 7.02 C0.56 6.79, 0.42 6.54, 0.32 6.28 C0.21 6.03, 0.13 5.76, 0.08 5.49 C0.03 5.23, 0 4.95, 0 4.68 C0 4.41, 0.03 4.13, 0.08 3.87 C0.13 3.6, 0.21 3.33, 0.32 3.08 C0.42 2.83, 0.56 2.58, 0.71 2.34 C0.86 2.11, 1.04 1.88, 1.24 1.67 C1.43 1.46, 1.65 1.27, 1.89 1.1 C2.12 0.92, 2.38 0.76, 2.64 0.63 C2.91 0.49, 3.19 0.37, 3.48 0.28 C3.76 0.19, 4.07 0.12, 4.37 0.07 C4.67 0.02, 4.98 0, 5.28 0 C5.59 0, 5.9 0.02, 6.2 0.07 C6.5 0.12, 6.81 0.19, 7.09 0.28 C7.38 0.37, 7.66 0.49, 7.93 0.63 C8.19 0.76, 8.45 0.92, 8.68 1.1 C8.92 1.27, 9.14 1.46, 9.33 1.67 C9.53 1.88, 9.71 2.11, 9.86 2.34 C10.01 2.58, 10.15 2.83, 10.25 3.08 C10.36 3.33, 10.44 3.6, 10.49 3.87 C10.54 4.13, 10.56 4.55, 10.57 4.68 C10.58 4.82, 10.58 4.55, 10.57 4.68" stroke="#1e1e1e" stroke-width="2" fill="none"></path></g><g stroke-linecap="round" transform="translate(694.0640383977784 758.5330218268748) rotate(0 103.7753293602268 38.8088958233468)"><path d="M0 0 L207.55 0 L207.55 77.62 L0 77.62" stroke="none" stroke-width="0" fill="#fff"></path><path d="M0 0 C49.54 0, 99.09 0, 207.55 0 M0 0 C52.23 0, 104.46 0, 207.55 0 M207.55 0 C207.55 25.45, 207.55 50.9, 207.55 77.62 M207.55 0 C207.55 16.8, 207.55 33.6, 207.55 77.62 M207.55 77.62 C148.35 77.62, 89.16 77.62, 0 77.62 M207.55 77.62 C151.55 77.62, 95.54 77.62, 0 77.62 M0 77.62 C0 60.11, 0 42.6, 0 0 M0 77.62 C0 61.29, 0 44.96, 0 0" stroke="#000000" stroke-width="2" fill="none"></path></g><g transform="translate(761.3081177580052 786.661332445816) rotate(0 36.53125 10.680585204405588)"><text x="36.53125" y="0" font-family="Cascadia, Segoe UI Emoji" font-size="17.800975340675983px" fill="#000000" text-anchor="middle" style="white-space: pre;" direction="ltr" dominant-baseline="text-before-edge">Formato</text></g><g stroke-linecap="round" transform="translate(761.7955382693722 601.0318820356517) rotate(268.430645195251 33.967300176635035 29.448999261064728)"><path d="M35.67 -1.45 L68.26 31.4 L32.51 57.05 L0.05 31.43" stroke="none" stroke-width="0" fill="#fff" fill-rule="evenodd"></path><path d="M34 0 C42.8 5.08, 50.73 14.88, 67.93 30 M34 0 C42.73 6.82, 50.44 13.74, 67.93 30 M67.93 30 C59.85 34.9, 52.26 43.36, 34 58.9 M67.93 30 C55.63 40.37, 43.51 50.14, 34 58.9 M34 58.9 C20.92 48.67, 6.87 37.75, 0 30 M34 58.9 C25.69 53.29, 17.83 45.94, 0 30 M0 30 C10.18 22.85, 19.48 13.52, 34 0 M0 30 C10.81 21.71, 21.47 11.58, 34 0" stroke="#000000" stroke-width="1" fill="none"></path></g><g stroke-linecap="round"><g transform="translate(795.8123297792386 601.5036712016074) rotate(268.430645195251 -0.1438764461977371 28.775289239529798)"><path d="M0 0 C-0.05 9.59, -0.24 47.96, -0.29 57.55 M0 0 C-0.05 9.59, -0.24 47.96, -0.29 57.55" stroke="#1e1e1e" stroke-width="2" fill="none"></path></g></g><mask></mask><g transform="translate(782.7462647407697 601.5762156313447) rotate(268.430645195251 10.071351233835458 13.956015281171972)" stroke="none"><path d="M0 0 C0.43 1.1, 2.3 1.97, 2.59 6.62 C2.88 11.27, 1.44 24.51, 1.73 27.91 C2.01 31.32, 3.6 27.62, 4.32 27.05 C5.04 26.47, 4.75 25.61, 6.04 24.46 C7.34 23.31, 9.74 21.44, 12.09 20.14 C14.44 18.85, 20.62 18.27, 20.14 16.69 C19.66 15.11, 11.46 12.76, 9.21 10.65 C6.95 8.54, 7.34 5.32, 6.62 4.03 C5.9 2.73, 5.18 3.07, 4.89 2.88" stroke="none" stroke-width="0" fill="#e9ecef" fill-rule="evenodd"></path><path fill="#1e1e1e" d="M 4.55,-2.02 Q 4.55,-2.02 5.30,-0.57 6.05,0.87 6.95,3.15 7.86,5.43 8.14,7.60 8.41,9.77 8.60,12.04 8.78,14.31 8.71,16.56 8.63,18.82 8.43,20.99 8.23,23.17 5.78,22.14 3.32,21.11 1.06,21.68 -1.19,22.24 0.71,20.31 2.62,18.37 5.08,16.83 7.55,15.28 9.62,13.84 11.69,12.40 14.00,11.62 16.31,10.85 14.95,13.21 13.59,15.57 13.56,18.08 13.53,20.60 10.91,19.60 8.29,18.60 6.49,17.38 4.69,16.17 3.49,14.35 2.29,12.54 1.23,10.42 0.16,8.30 1.37,9.26 2.57,10.22 1.47,9.64 0.37,9.06 -0.48,8.15 -1.34,7.25 -1.86,6.12 -2.38,4.98 -2.52,3.74 -2.65,2.50 -2.39,1.29 -2.12,0.07 -1.48,-0.99 -0.83,-2.06 0.11,-2.86 1.06,-3.67 2.22,-4.13 3.37,-4.60 4.62,-4.66 5.86,-4.73 7.07,-4.40 8.27,-4.06 9.30,-3.36 10.33,-2.66 11.09,-1.67 11.84,-0.68 12.24,0.49 12.64,1.67 12.64,2.92 12.64,4.17 12.24,5.35 11.84,6.53 11.09,7.52 10.33,8.52 9.30,9.22 8.27,9.92 7.07,10.25 5.86,10.58 4.62,10.52 3.37,10.45 2.22,9.99 1.06,9.52 0.11,8.72 -0.83,7.91 -1.48,6.84 -2.12,5.77 -2.39,4.56 -2.65,3.34 -2.52,2.10 -2.38,0.86 -1.86,-0.26 -1.34,-1.39 -0.48,-2.30 0.37,-3.20 1.47,-3.79 2.57,-4.37 3.80,-4.57 5.03,-4.78 6.26,-4.57 7.49,-4.37 7.49,-4.37 7.49,-4.37 10.65,0.22 13.82,4.82 16.52,6.16 19.23,7.50 21.44,9.23 23.65,10.96 21.61,9.58 19.57,8.20 22.29,9.74 25.01,11.27 25.49,14.83 25.97,18.38 23.77,21.17 21.56,23.97 19.40,24.65 17.24,25.34 14.47,26.99 11.70,28.64 9.93,30.50 8.16,32.37 6.25,33.43 4.34,34.49 1.15,33.97 -2.03,33.45 -3.59,30.27 -5.15,27.10 -5.04,24.89 -4.93,22.69 -4.52,20.42 -4.11,18.16 -3.84,15.99 -3.57,13.82 -3.39,11.63 -3.20,9.44 -3.30,7.26 -3.40,5.07 -3.98,3.55 -4.55,2.02 -4.73,1.44 -4.90,0.87 -4.94,0.27 -4.97,-0.32 -4.86,-0.91 -4.75,-1.50 -4.50,-2.05 -4.25,-2.59 -3.88,-3.06 -3.50,-3.54 -3.03,-3.90 -2.55,-4.27 -2.00,-4.52 -1.46,-4.76 -0.86,-4.87 -0.27,-4.97 0.32,-4.93 0.92,-4.89 1.49,-4.71 2.06,-4.53 2.57,-4.22 3.09,-3.90 3.51,-3.48 3.93,-3.05 4.24,-2.53 4.55,-2.02 4.55,-2.02 L 4.55,-2.02 Z"></path></g><g transform="translate(784.7472568485123 633.410559357638) rotate(268.430645195251 11.941745034404903 -18.416185113299036)" stroke="none"><path fill="#1e1e1e" d="M 2.54,0 Q 2.54,0 2.59,0.76 2.63,1.53 2.42,2.62 2.21,3.70 1.56,5.03 0.91,6.35 0.61,6.78 0.32,7.21 0.04,7.43 -0.23,7.66 -0.56,7.81 -0.88,7.95 -1.24,8.02 -1.59,8.09 -1.95,8.07 -2.31,8.05 -2.65,7.94 -2.99,7.84 -3.30,7.65 -3.61,7.47 -3.87,7.22 -4.12,6.97 -4.31,6.66 -4.50,6.35 -4.60,6.01 -4.71,5.67 -4.74,5.31 -4.76,4.95 -4.70,4.60 -4.64,4.24 -4.49,3.92 -4.34,3.59 -4.12,3.30 -3.90,3.02 -4.29,4.37 -4.67,5.72 -4.70,4.65 -4.73,3.59 -4.39,2.48 -4.04,1.37 -3.71,0.19 -3.38,-0.99 -3.16,-2.12 -2.94,-3.24 -2.76,-4.31 -2.57,-5.38 -1.43,-6.49 -0.29,-7.60 1.22,-7.96 2.74,-8.31 3.35,-8.56 3.96,-8.80 4.36,-8.96 4.76,-9.11 5.19,-9.16 5.62,-9.21 6.04,-9.15 6.47,-9.10 6.87,-8.95 7.27,-8.79 7.62,-8.55 7.97,-8.31 8.25,-7.98 8.54,-7.66 8.73,-7.28 8.93,-6.90 9.03,-6.49 9.14,-6.07 9.13,-5.64 9.13,-5.21 9.03,-4.80 8.93,-4.38 8.72,-4.00 8.52,-3.62 8.24,-3.30 7.95,-2.98 7.60,-2.74 7.25,-2.50 6.17,-1.65 5.09,-0.81 4.87,0.35 4.66,1.52 4.07,2.41 3.49,3.30 2.77,4.12 2.05,4.93 2.20,4.91 2.36,4.89 2.10,5.26 1.85,5.64 1.52,5.94 1.18,6.24 0.79,6.45 0.39,6.66 -0.04,6.77 -0.47,6.88 -0.92,6.89 -1.37,6.89 -1.81,6.79 -2.25,6.68 -2.65,6.47 -3.05,6.27 -3.39,5.97 -3.72,5.68 -3.98,5.31 -4.24,4.94 -4.40,4.52 -4.57,4.10 -4.62,3.66 -4.68,3.21 -4.63,2.76 -4.58,2.32 -4.42,1.90 -4.27,1.47 -2.68,0.53 -1.09,-0.41 -0.25,-1.28 0.57,-2.16 1.62,-3.06 2.68,-3.96 3.96,-4.84 5.24,-5.71 6.45,-6.37 7.66,-7.04 8.64,-8.02 9.62,-9.00 10.52,-10.05 11.42,-11.10 12.54,-11.89 13.67,-12.68 14.91,-13.31 16.15,-13.94 17.11,-15.13 18.08,-16.33 19.39,-17.56 20.69,-18.80 21.65,-19.63 22.60,-20.47 22.54,-18.95 22.48,-17.43 20.89,-18.22 19.29,-19.02 18.29,-19.71 17.29,-20.40 16.13,-21.85 14.98,-23.30 13.85,-24.71 12.71,-26.11 11.81,-27.16 10.90,-28.21 11.64,-27.41 12.38,-26.61 11.48,-27.29 10.57,-27.98 9.62,-28.72 8.66,-29.46 7.51,-30.66 6.36,-31.86 5.38,-32.85 4.40,-33.83 3.35,-34.44 2.31,-35.05 1.39,-35.75 0.47,-36.45 -1.40,-38.65 -3.29,-40.84 -3.41,-41.46 -3.54,-42.07 -3.46,-42.69 -3.38,-43.31 -3.11,-43.87 -2.84,-44.43 -2.41,-44.88 -1.97,-45.33 -1.42,-45.61 -0.86,-45.90 -0.24,-45.99 0.37,-46.08 0.98,-45.97 1.60,-45.86 2.14,-45.56 2.69,-45.26 3.11,-44.80 3.54,-44.34 3.79,-43.77 4.04,-43.20 4.10,-42.58 4.16,-41.96 4.02,-41.35 3.88,-40.74 3.55,-40.21 3.22,-39.68 2.74,-39.28 2.25,-38.89 1.67,-38.66 1.09,-38.44 0.46,-38.42 -0.15,-38.39 -0.75,-38.57 -1.35,-38.74 -1.86,-39.10 -2.37,-39.46 -2.74,-39.96 -3.12,-40.46 -3.31,-41.06 -3.50,-41.65 -3.49,-42.28 -3.48,-42.90 -3.27,-43.49 -3.06,-44.08 -2.68,-44.57 -2.29,-45.06 -1.77,-45.41 -1.25,-45.75 -0.65,-45.91 -0.04,-46.07 0.57,-46.02 1.20,-45.98 1.77,-45.74 2.35,-45.50 2.82,-45.09 3.29,-44.68 3.60,-44.14 3.92,-43.60 3.92,-43.60 3.92,-43.60 4.74,-42.89 5.55,-42.19 6.74,-41.27 7.93,-40.36 9.44,-39.17 10.95,-37.98 11.89,-36.87 12.83,-35.76 13.84,-35.06 14.85,-34.37 15.92,-33.40 17.00,-32.42 17.68,-31.46 18.37,-30.51 19.03,-29.48 19.70,-28.46 20.60,-27.66 21.50,-26.86 22.26,-26.09 23.03,-25.33 24.08,-24.73 25.13,-24.12 26.29,-23.45 27.45,-22.78 28.19,-22.01 28.94,-21.24 29.27,-20.00 29.60,-18.76 29.00,-17.25 28.40,-15.74 27.22,-14.60 26.03,-13.46 25.14,-12.75 24.26,-12.04 23.54,-10.98 22.82,-9.93 21.82,-9.08 20.83,-8.22 19.68,-7.53 18.53,-6.83 17.52,-6.47 16.51,-6.12 15.77,-4.92 15.03,-3.72 14.00,-2.76 12.96,-1.80 11.99,-1.27 11.02,-0.74 9.91,-0.10 8.80,0.52 7.51,1.52 6.22,2.51 5.09,3.37 3.95,4.24 3.14,4.94 2.34,5.64 1.14,6.20 -0.05,6.76 1.15,5.83 2.36,4.89 2.10,5.26 1.85,5.64 1.52,5.94 1.18,6.24 0.79,6.45 0.39,6.66 -0.04,6.77 -0.47,6.88 -0.92,6.89 -1.37,6.89 -1.81,6.79 -2.25,6.68 -2.65,6.48 -3.05,6.27 -3.39,5.97 -3.72,5.68 -3.98,5.31 -4.24,4.94 -4.40,4.52 -4.57,4.10 -4.62,3.66 -4.68,3.21 -4.63,2.76 -4.58,2.32 -4.42,1.90 -4.27,1.47 -4.13,1.29 -3.99,1.11 -3.32,0.21 -2.64,-0.68 -1.92,-1.95 -1.20,-3.22 -0.68,-4.38 -0.15,-5.53 0.81,-6.45 1.79,-7.36 2.87,-8.08 3.96,-8.80 4.36,-8.96 4.76,-9.11 5.19,-9.16 5.61,-9.21 6.04,-9.15 6.47,-9.10 6.87,-8.95 7.27,-8.80 7.62,-8.55 7.97,-8.31 8.25,-7.98 8.54,-7.66 8.73,-7.28 8.93,-6.90 9.03,-6.49 9.14,-6.07 9.13,-5.64 9.13,-5.21 9.03,-4.80 8.93,-4.38 8.72,-4.00 8.52,-3.62 8.24,-3.30 7.95,-2.98 7.60,-2.74 7.25,-2.50 6.68,-2.30 6.11,-2.11 4.16,-1.61 2.20,-1.11 2.93,-2.05 3.66,-2.99 3.31,-1.78 2.95,-0.56 2.59,0.55 2.23,1.67 1.53,2.80 0.83,3.92 0.58,5.57 0.32,7.21 0.04,7.43 -0.23,7.66 -0.56,7.81 -0.88,7.95 -1.24,8.02 -1.59,8.09 -1.95,8.07 -2.31,8.05 -2.65,7.94 -2.99,7.84 -3.30,7.65 -3.61,7.47 -3.87,7.22 -4.12,6.97 -4.31,6.66 -4.50,6.35 -4.60,6.01 -4.71,5.67 -4.74,5.31 -4.76,4.95 -4.70,4.60 -4.64,4.24 -4.49,3.92 -4.34,3.59 -4.12,3.30 -3.90,3.02 -3.27,2.23 -2.63,1.44 -2.59,0.72 -2.54,0 -2.51,-0.30 -2.47,-0.60 -2.36,-0.89 -2.25,-1.18 -2.08,-1.43 -1.90,-1.68 -1.67,-1.89 -1.44,-2.09 -1.17,-2.23 -0.90,-2.38 -0.60,-2.45 -0.30,-2.52 0.00,-2.52 0.30,-2.52 0.60,-2.45 0.90,-2.38 1.17,-2.23 1.44,-2.09 1.67,-1.89 1.90,-1.68 2.08,-1.43 2.25,-1.18 2.36,-0.89 2.47,-0.60 2.51,-0.30 2.54,0.00 2.54,0.00 L 2.54,0 Z"></path></g><g stroke-linecap="round"><g transform="translate(765.0103275362085 599.4382563522843) rotate(268.430645195251 16.545791312729534 14.819273958357826)"><path d="M0 0 C5.52 4.94, 27.58 24.7, 33.09 29.64 M0 0 C5.52 4.94, 27.58 24.7, 33.09 29.64" stroke="#1e1e1e" stroke-width="1" fill="none"></path></g></g><mask></mask><g stroke-linecap="round"><g transform="translate(792.7362194521861 625.8472083845379) rotate(268.430645195251 17.409049989915502 -13.524385942578988)"><path d="M0 0 C5.8 -4.51, 29.02 -22.54, 34.82 -27.05 M0 0 C5.8 -4.51, 29.02 -22.54, 34.82 -27.05" stroke="#1e1e1e" stroke-width="1" fill="none"></path></g></g><mask></mask><g stroke-linecap="round"><g transform="translate(763.8161341073042 597.4364007699644) rotate(268.430645195251 17.265173543717765 15.25090329695081)"><path d="M0 0 C5.76 5.08, 28.78 25.42, 34.53 30.5 M0 0 C5.76 5.08, 28.78 25.42, 34.53 30.5" stroke="#1e1e1e" stroke-width="1" fill="none"></path></g></g><mask></mask><g stroke-linecap="round"><g transform="translate(797.8393674406216 758.8560273537125) rotate(0 -2.2737367544323206e-13 -47.00062581128526)"><path d="M0 0 C0 -15.67, 0 -78.33, 0 -94 M0 0 C0 -15.67, 0 -78.33, 0 -94" stroke="#1e1e1e" stroke-width="2" fill="none"></path></g></g><mask></mask><g stroke-linecap="round"><g transform="translate(794.7242784776731 599.434223382031) rotate(0 0 -25.50994457013121)"><path d="M0 0 C0 -8.5, 0 -42.52, 0 -51.02 M0 0 C0 -8.5, 0 -42.52, 0 -51.02" stroke="#1e1e1e" stroke-width="2" fill="none"></path></g></g><mask></mask><g stroke-linecap="round"><g transform="translate(613.2021974332065 548.1859715691662) rotate(0 90.75653356681255 0)"><path d="M0 0 C30.25 0, 151.26 0, 181.51 0 M0 0 C30.25 0, 151.26 0, 181.51 0" stroke="#1e1e1e" stroke-width="2" fill="none"></path></g></g><mask></mask><g stroke-linecap="round"><g transform="translate(612.6586847769927 431.78222896648487) rotate(0 0 58.20331751185046)"><path d="M0 0 C0 19.4, 0 97.01, 0 116.41 M0 0 C0 19.4, 0 97.01, 0 116.41" stroke="#1e1e1e" stroke-width="2" fill="none"></path></g></g><mask></mask><g stroke-linecap="round" transform="translate(607.1923975569616 421.89184089168634) rotate(0 5.284989705367025 4.680990881896577)"><path d="M10.57 4.68 C10.57 4.95, 10.54 5.23, 10.49 5.49 C10.44 5.76, 10.36 6.03, 10.25 6.28 C10.15 6.54, 10.01 6.79, 9.86 7.02 C9.71 7.26, 9.53 7.48, 9.33 7.69 C9.14 7.9, 8.92 8.09, 8.68 8.27 C8.45 8.44, 8.19 8.6, 7.93 8.73 C7.66 8.87, 7.38 8.99, 7.09 9.08 C6.81 9.17, 6.5 9.24, 6.2 9.29 C5.9 9.34, 5.59 9.36, 5.28 9.36 C4.98 9.36, 4.67 9.34, 4.37 9.29 C4.07 9.24, 3.76 9.17, 3.48 9.08 C3.19 8.99, 2.91 8.87, 2.64 8.73 C2.38 8.6, 2.12 8.44, 1.89 8.27 C1.65 8.09, 1.43 7.9, 1.24 7.69 C1.04 7.48, 0.86 7.26, 0.71 7.02 C0.56 6.79, 0.42 6.54, 0.32 6.28 C0.21 6.03, 0.13 5.76, 0.08 5.49 C0.03 5.23, 0 4.95, 0 4.68 C0 4.41, 0.03 4.13, 0.08 3.87 C0.13 3.6, 0.21 3.33, 0.32 3.08 C0.42 2.83, 0.56 2.58, 0.71 2.34 C0.86 2.11, 1.04 1.88, 1.24 1.67 C1.43 1.46, 1.65 1.27, 1.89 1.1 C2.12 0.92, 2.38 0.76, 2.64 0.63 C2.91 0.49, 3.19 0.37, 3.48 0.28 C3.76 0.19, 4.07 0.12, 4.37 0.07 C4.67 0.02, 4.98 0, 5.28 0 C5.59 0, 5.9 0.02, 6.2 0.07 C6.5 0.12, 6.81 0.19, 7.09 0.28 C7.38 0.37, 7.66 0.49, 7.93 0.63 C8.19 0.76, 8.45 0.92, 8.68 1.1 C8.92 1.27, 9.14 1.46, 9.33 1.67 C9.53 1.88, 9.71 2.11, 9.86 2.34 C10.01 2.58, 10.15 2.83, 10.25 3.08 C10.36 3.33, 10.44 3.6, 10.49 3.87 C10.54 4.13, 10.56 4.55, 10.57 4.68 C10.58 4.82, 10.58 4.55, 10.57 4.68" stroke="none" stroke-width="0" fill="#e9ecef"></path><path d="M10.57 4.68 C10.57 4.95, 10.54 5.23, 10.49 5.49 C10.44 5.76, 10.36 6.03, 10.25 6.28 C10.15 6.54, 10.01 6.79, 9.86 7.02 C9.71 7.26, 9.53 7.48, 9.33 7.69 C9.14 7.9, 8.92 8.09, 8.68 8.27 C8.45 8.44, 8.19 8.6, 7.93 8.73 C7.66 8.87, 7.38 8.99, 7.09 9.08 C6.81 9.17, 6.5 9.24, 6.2 9.29 C5.9 9.34, 5.59 9.36, 5.28 9.36 C4.98 9.36, 4.67 9.34, 4.37 9.29 C4.07 9.24, 3.76 9.17, 3.48 9.08 C3.19 8.99, 2.91 8.87, 2.64 8.73 C2.38 8.6, 2.12 8.44, 1.89 8.27 C1.65 8.09, 1.43 7.9, 1.24 7.69 C1.04 7.48, 0.86 7.26, 0.71 7.02 C0.56 6.79, 0.42 6.54, 0.32 6.28 C0.21 6.03, 0.13 5.76, 0.08 5.49 C0.03 5.23, 0 4.95, 0 4.68 C0 4.41, 0.03 4.13, 0.08 3.87 C0.13 3.6, 0.21 3.33, 0.32 3.08 C0.42 2.83, 0.56 2.58, 0.71 2.34 C0.86 2.11, 1.04 1.88, 1.24 1.67 C1.43 1.46, 1.65 1.27, 1.89 1.1 C2.12 0.92, 2.38 0.76, 2.64 0.63 C2.91 0.49, 3.19 0.37, 3.48 0.28 C3.76 0.19, 4.07 0.12, 4.37 0.07 C4.67 0.02, 4.98 0, 5.28 0 C5.59 0, 5.9 0.02, 6.2 0.07 C6.5 0.12, 6.81 0.19, 7.09 0.28 C7.38 0.37, 7.66 0.49, 7.93 0.63 C8.19 0.76, 8.45 0.92, 8.68 1.1 C8.92 1.27, 9.14 1.46, 9.33 1.67 C9.53 1.88, 9.71 2.11, 9.86 2.34 C10.01 2.58, 10.15 2.83, 10.25 3.08 C10.36 3.33, 10.44 3.6, 10.49 3.87 C10.54 4.13, 10.56 4.55, 10.57 4.68 C10.58 4.82, 10.58 4.55, 10.57 4.68" stroke="#1e1e1e" stroke-width="2" fill="none"></path></g><g stroke-linecap="round" transform="translate(216.87806432751768 758.533021503586) rotate(0 103.7753293602268 38.8088958233468)"><path d="M0 0 L207.55 0 L207.55 77.62 L0 77.62" stroke="none" stroke-width="0" fill="#fff"></path><path d="M0 0 C62.08 0, 124.16 0, 207.55 0 M0 0 C75.65 0, 151.3 0, 207.55 0 M207.55 0 C207.55 27.69, 207.55 55.39, 207.55 77.62 M207.55 0 C207.55 25.14, 207.55 50.28, 207.55 77.62 M207.55 77.62 C133.62 77.62, 59.7 77.62, 0 77.62 M207.55 77.62 C134.53 77.62, 61.51 77.62, 0 77.62 M0 77.62 C0 50.53, 0 23.45, 0 0 M0 77.62 C0 52.58, 0 27.54, 0 0" stroke="#000000" stroke-width="2" fill="none"></path></g><g transform="translate(299.7783936877445 786.6613321225273) rotate(0 20.875 10.680585204405588)"><text x="20.875" y="0" font-family="Cascadia, Segoe UI Emoji" font-size="17.800975340675983px" fill="#000000" text-anchor="middle" style="white-space: pre;" direction="ltr" dominant-baseline="text-before-edge">Tema</text></g><g stroke-linecap="round" transform="translate(297.6087253774426 602.9307059717694) rotate(268.430645195251 33.967300176635035 29.448999261064785)"><path d="M33.4 -1.72 L66.87 30.39 L34.88 58.53 L1.79 29.82" stroke="none" stroke-width="0" fill="#fff" fill-rule="evenodd"></path><path d="M34 0 C39.92 6.2, 48.28 11.77, 67.93 30 M34 0 C42.48 8.05, 51.33 16.15, 67.93 30 M67.93 30 C60.45 37.07, 49.29 46.04, 34 58.9 M67.93 30 C56.52 40.44, 44.62 50.24, 34 58.9 M34 58.9 C25.67 51.21, 14.94 44.82, 0 30 M34 58.9 C22.35 50.09, 12.14 39, 0 30 M0 30 C11.64 21.59, 22.26 10.09, 34 0 M0 30 C8.53 23.75, 15.46 16.3, 34 0" stroke="#000000" stroke-width="1" fill="none"></path></g><g stroke-linecap="round"><g transform="translate(331.6255168873108 603.4024951377255) rotate(268.430645195251 -0.1438764461977371 28.775289239529798)"><path d="M0 0 C-0.05 9.59, -0.24 47.96, -0.29 57.55 M0 0 C-0.05 9.59, -0.24 47.96, -0.29 57.55" stroke="#1e1e1e" stroke-width="2" fill="none"></path></g></g><mask></mask><g transform="translate(318.5594518488401 603.4750395674628) rotate(268.430645195251 10.071351233835458 13.956015281171915)" stroke="none"><path d="M0 0 C0.43 1.1, 2.3 1.97, 2.59 6.62 C2.88 11.27, 1.44 24.51, 1.73 27.91 C2.01 31.32, 3.6 27.62, 4.32 27.05 C5.04 26.47, 4.75 25.61, 6.04 24.46 C7.34 23.31, 9.74 21.44, 12.09 20.14 C14.44 18.85, 20.62 18.27, 20.14 16.69 C19.66 15.11, 11.46 12.76, 9.21 10.65 C6.95 8.54, 7.34 5.32, 6.62 4.03 C5.9 2.73, 5.18 3.07, 4.89 2.88" stroke="none" stroke-width="0" fill="#e9ecef" fill-rule="evenodd"></path><path fill="#1e1e1e" d="M 4.55,-2.02 Q 4.55,-2.02 5.30,-0.57 6.05,0.87 6.95,3.15 7.86,5.43 8.14,7.60 8.41,9.77 8.60,12.04 8.78,14.31 8.71,16.56 8.63,18.82 8.43,20.99 8.23,23.17 5.78,22.14 3.32,21.11 1.06,21.68 -1.19,22.24 0.71,20.31 2.62,18.37 5.08,16.83 7.55,15.28 9.62,13.84 11.69,12.40 14.00,11.62 16.31,10.85 14.95,13.21 13.59,15.57 13.56,18.08 13.53,20.60 10.91,19.60 8.29,18.60 6.49,17.38 4.69,16.17 3.49,14.35 2.29,12.54 1.23,10.42 0.16,8.30 1.37,9.26 2.57,10.22 1.47,9.64 0.37,9.06 -0.48,8.15 -1.34,7.25 -1.86,6.12 -2.38,4.98 -2.52,3.74 -2.65,2.50 -2.39,1.29 -2.12,0.07 -1.48,-0.99 -0.83,-2.06 0.11,-2.86 1.06,-3.67 2.22,-4.13 3.37,-4.60 4.62,-4.66 5.86,-4.73 7.07,-4.40 8.27,-4.06 9.30,-3.36 10.33,-2.66 11.09,-1.67 11.84,-0.68 12.24,0.49 12.64,1.67 12.64,2.92 12.64,4.17 12.24,5.35 11.84,6.53 11.09,7.52 10.33,8.52 9.30,9.22 8.27,9.92 7.07,10.25 5.86,10.58 4.62,10.52 3.37,10.45 2.22,9.99 1.06,9.52 0.11,8.72 -0.83,7.91 -1.48,6.84 -2.12,5.77 -2.39,4.56 -2.65,3.34 -2.52,2.10 -2.38,0.86 -1.86,-0.26 -1.34,-1.39 -0.48,-2.30 0.37,-3.20 1.47,-3.79 2.57,-4.37 3.80,-4.57 5.03,-4.78 6.26,-4.57 7.49,-4.37 7.49,-4.37 7.49,-4.37 10.65,0.22 13.82,4.82 16.52,6.16 19.23,7.50 21.44,9.23 23.65,10.96 21.61,9.58 19.57,8.20 22.29,9.74 25.01,11.27 25.49,14.83 25.97,18.38 23.77,21.17 21.56,23.97 19.40,24.65 17.24,25.34 14.47,26.99 11.70,28.64 9.93,30.50 8.16,32.37 6.25,33.43 4.34,34.49 1.15,33.97 -2.03,33.45 -3.59,30.27 -5.15,27.10 -5.04,24.89 -4.93,22.69 -4.52,20.42 -4.11,18.16 -3.84,15.99 -3.57,13.82 -3.39,11.63 -3.20,9.44 -3.30,7.26 -3.40,5.07 -3.98,3.55 -4.55,2.02 -4.73,1.44 -4.90,0.87 -4.94,0.27 -4.97,-0.32 -4.86,-0.91 -4.75,-1.50 -4.50,-2.05 -4.25,-2.59 -3.88,-3.06 -3.50,-3.54 -3.03,-3.90 -2.55,-4.27 -2.00,-4.52 -1.46,-4.76 -0.86,-4.87 -0.27,-4.97 0.32,-4.93 0.92,-4.89 1.49,-4.71 2.06,-4.53 2.57,-4.22 3.09,-3.90 3.51,-3.48 3.93,-3.05 4.24,-2.53 4.55,-2.02 4.55,-2.02 L 4.55,-2.02 Z"></path></g><g transform="translate(320.56044395658364 635.3093832937557) rotate(268.430645195251 11.941745034404903 -18.416185113299036)" stroke="none"><path fill="#1e1e1e" d="M 2.54,0 Q 2.54,0 2.59,0.76 2.63,1.53 2.42,2.62 2.21,3.70 1.56,5.03 0.91,6.35 0.61,6.78 0.32,7.21 0.04,7.43 -0.23,7.66 -0.56,7.81 -0.88,7.95 -1.24,8.02 -1.59,8.09 -1.95,8.07 -2.31,8.05 -2.65,7.94 -2.99,7.84 -3.30,7.65 -3.61,7.47 -3.87,7.22 -4.12,6.97 -4.31,6.66 -4.50,6.35 -4.60,6.01 -4.71,5.67 -4.74,5.31 -4.76,4.95 -4.70,4.60 -4.64,4.24 -4.49,3.92 -4.34,3.59 -4.12,3.30 -3.90,3.02 -4.29,4.37 -4.67,5.72 -4.70,4.65 -4.73,3.59 -4.39,2.48 -4.04,1.37 -3.71,0.19 -3.38,-0.99 -3.16,-2.12 -2.94,-3.24 -2.76,-4.31 -2.57,-5.38 -1.43,-6.49 -0.29,-7.60 1.22,-7.96 2.74,-8.31 3.35,-8.56 3.96,-8.80 4.36,-8.96 4.76,-9.11 5.19,-9.16 5.62,-9.21 6.04,-9.15 6.47,-9.10 6.87,-8.95 7.27,-8.79 7.62,-8.55 7.97,-8.31 8.25,-7.98 8.54,-7.66 8.73,-7.28 8.93,-6.90 9.03,-6.49 9.14,-6.07 9.13,-5.64 9.13,-5.21 9.03,-4.80 8.93,-4.38 8.72,-4.00 8.52,-3.62 8.24,-3.30 7.95,-2.98 7.60,-2.74 7.25,-2.50 6.17,-1.65 5.09,-0.81 4.87,0.35 4.66,1.52 4.07,2.41 3.49,3.30 2.77,4.12 2.05,4.93 2.20,4.91 2.36,4.89 2.10,5.26 1.85,5.64 1.52,5.94 1.18,6.24 0.79,6.45 0.39,6.66 -0.04,6.77 -0.47,6.88 -0.92,6.89 -1.37,6.89 -1.81,6.79 -2.25,6.68 -2.65,6.47 -3.05,6.27 -3.39,5.97 -3.72,5.68 -3.98,5.31 -4.24,4.94 -4.40,4.52 -4.57,4.10 -4.62,3.66 -4.68,3.21 -4.63,2.76 -4.58,2.32 -4.42,1.90 -4.27,1.47 -2.68,0.53 -1.09,-0.41 -0.25,-1.28 0.57,-2.16 1.62,-3.06 2.68,-3.96 3.96,-4.84 5.24,-5.71 6.45,-6.37 7.66,-7.04 8.64,-8.02 9.62,-9.00 10.52,-10.05 11.42,-11.10 12.54,-11.89 13.67,-12.68 14.91,-13.31 16.15,-13.94 17.11,-15.13 18.08,-16.33 19.39,-17.56 20.69,-18.80 21.65,-19.63 22.60,-20.47 22.54,-18.95 22.48,-17.43 20.89,-18.22 19.29,-19.02 18.29,-19.71 17.29,-20.40 16.13,-21.85 14.98,-23.30 13.85,-24.71 12.71,-26.11 11.81,-27.16 10.90,-28.21 11.64,-27.41 12.38,-26.61 11.48,-27.29 10.57,-27.98 9.62,-28.72 8.66,-29.46 7.51,-30.66 6.36,-31.86 5.38,-32.85 4.40,-33.83 3.35,-34.44 2.31,-35.05 1.39,-35.75 0.47,-36.45 -1.40,-38.65 -3.29,-40.84 -3.41,-41.46 -3.54,-42.07 -3.46,-42.69 -3.38,-43.31 -3.11,-43.87 -2.84,-44.43 -2.41,-44.88 -1.97,-45.33 -1.42,-45.61 -0.86,-45.90 -0.24,-45.99 0.37,-46.08 0.98,-45.97 1.60,-45.86 2.14,-45.56 2.69,-45.26 3.11,-44.80 3.54,-44.34 3.79,-43.77 4.04,-43.20 4.10,-42.58 4.16,-41.96 4.02,-41.35 3.88,-40.74 3.55,-40.21 3.22,-39.68 2.74,-39.28 2.25,-38.89 1.67,-38.66 1.09,-38.44 0.46,-38.42 -0.15,-38.39 -0.75,-38.57 -1.35,-38.74 -1.86,-39.10 -2.37,-39.46 -2.74,-39.96 -3.12,-40.46 -3.31,-41.06 -3.50,-41.65 -3.49,-42.28 -3.48,-42.90 -3.27,-43.49 -3.06,-44.08 -2.68,-44.57 -2.29,-45.06 -1.77,-45.41 -1.25,-45.75 -0.65,-45.91 -0.04,-46.07 0.57,-46.02 1.20,-45.98 1.77,-45.74 2.35,-45.50 2.82,-45.09 3.29,-44.68 3.60,-44.14 3.92,-43.60 3.92,-43.60 3.92,-43.60 4.74,-42.89 5.55,-42.19 6.74,-41.27 7.93,-40.36 9.44,-39.17 10.95,-37.98 11.89,-36.87 12.83,-35.76 13.84,-35.06 14.85,-34.37 15.92,-33.40 17.00,-32.42 17.68,-31.46 18.37,-30.51 19.03,-29.48 19.70,-28.46 20.60,-27.66 21.50,-26.86 22.26,-26.09 23.03,-25.33 24.08,-24.73 25.13,-24.12 26.29,-23.45 27.45,-22.78 28.19,-22.01 28.94,-21.24 29.27,-20.00 29.60,-18.76 29.00,-17.25 28.40,-15.74 27.22,-14.60 26.03,-13.46 25.14,-12.75 24.26,-12.04 23.54,-10.98 22.82,-9.93 21.82,-9.08 20.83,-8.22 19.68,-7.53 18.53,-6.83 17.52,-6.47 16.51,-6.12 15.77,-4.92 15.03,-3.72 14.00,-2.76 12.96,-1.80 11.99,-1.27 11.02,-0.74 9.91,-0.10 8.80,0.52 7.51,1.52 6.22,2.51 5.09,3.37 3.95,4.24 3.14,4.94 2.34,5.64 1.14,6.20 -0.05,6.76 1.15,5.83 2.36,4.89 2.10,5.26 1.85,5.64 1.52,5.94 1.18,6.24 0.79,6.45 0.39,6.66 -0.04,6.77 -0.47,6.88 -0.92,6.89 -1.37,6.89 -1.81,6.79 -2.25,6.68 -2.65,6.48 -3.05,6.27 -3.39,5.97 -3.72,5.68 -3.98,5.31 -4.24,4.94 -4.40,4.52 -4.57,4.10 -4.62,3.66 -4.68,3.21 -4.63,2.76 -4.58,2.32 -4.42,1.90 -4.27,1.47 -4.13,1.29 -3.99,1.11 -3.32,0.21 -2.64,-0.68 -1.92,-1.95 -1.20,-3.22 -0.68,-4.38 -0.15,-5.53 0.81,-6.45 1.79,-7.36 2.87,-8.08 3.96,-8.80 4.36,-8.96 4.76,-9.11 5.19,-9.16 5.61,-9.21 6.04,-9.15 6.47,-9.10 6.87,-8.95 7.27,-8.80 7.62,-8.55 7.97,-8.31 8.25,-7.98 8.54,-7.66 8.73,-7.28 8.93,-6.90 9.03,-6.49 9.14,-6.07 9.13,-5.64 9.13,-5.21 9.03,-4.80 8.93,-4.38 8.72,-4.00 8.52,-3.62 8.24,-3.30 7.95,-2.98 7.60,-2.74 7.25,-2.50 6.68,-2.30 6.11,-2.11 4.16,-1.61 2.20,-1.11 2.93,-2.05 3.66,-2.99 3.31,-1.78 2.95,-0.56 2.59,0.55 2.23,1.67 1.53,2.80 0.83,3.92 0.58,5.57 0.32,7.21 0.04,7.43 -0.23,7.66 -0.56,7.81 -0.88,7.95 -1.24,8.02 -1.59,8.09 -1.95,8.07 -2.31,8.05 -2.65,7.94 -2.99,7.84 -3.30,7.65 -3.61,7.47 -3.87,7.22 -4.12,6.97 -4.31,6.66 -4.50,6.35 -4.60,6.01 -4.71,5.67 -4.74,5.31 -4.76,4.95 -4.70,4.60 -4.64,4.24 -4.49,3.92 -4.34,3.59 -4.12,3.30 -3.90,3.02 -3.27,2.23 -2.63,1.44 -2.59,0.72 -2.54,0 -2.51,-0.30 -2.47,-0.60 -2.36,-0.89 -2.25,-1.18 -2.08,-1.43 -1.90,-1.68 -1.67,-1.89 -1.44,-2.09 -1.17,-2.23 -0.90,-2.38 -0.60,-2.45 -0.30,-2.52 0.00,-2.52 0.30,-2.52 0.60,-2.45 0.90,-2.38 1.17,-2.23 1.44,-2.09 1.67,-1.89 1.90,-1.68 2.08,-1.43 2.25,-1.18 2.36,-0.89 2.47,-0.60 2.51,-0.30 2.54,0.00 2.54,0.00 L 2.54,0 Z"></path></g><g stroke-linecap="round"><g transform="translate(300.82351464428075 601.3370802884024) rotate(268.430645195251 16.545791312729534 14.819273958357826)"><path d="M0 0 C5.52 4.94, 27.58 24.7, 33.09 29.64 M0 0 C5.52 4.94, 27.58 24.7, 33.09 29.64" stroke="#1e1e1e" stroke-width="1" fill="none"></path></g></g><mask></mask><g stroke-linecap="round"><g transform="translate(328.54940656025656 627.746032320656) rotate(268.430645195251 17.409049989915502 -13.524385942579045)"><path d="M0 0 C5.8 -4.51, 29.02 -22.54, 34.82 -27.05 M0 0 C5.8 -4.51, 29.02 -22.54, 34.82 -27.05" stroke="#1e1e1e" stroke-width="1" fill="none"></path></g></g><mask></mask><g stroke-linecap="round"><g transform="translate(299.6293212153764 599.3352247060825) rotate(268.430645195251 17.265173543717765 15.250903296950753)"><path d="M0 0 C5.76 5.08, 28.78 25.42, 34.53 30.5 M0 0 C5.76 5.08, 28.78 25.42, 34.53 30.5" stroke="#1e1e1e" stroke-width="1" fill="none"></path></g></g><mask></mask><g stroke-linecap="round"><g transform="translate(331.56806584333845 757.9065191377599) rotate(0 0.47475379607340074 -46.52587201521163)"><path d="M0 0 C0.16 -15.51, 0.79 -77.54, 0.95 -93.05 M0 0 C0.16 -15.51, 0.79 -77.54, 0.95 -93.05" stroke="#1e1e1e" stroke-width="2" fill="none"></path></g></g><mask></mask><g stroke-linecap="round"><g transform="translate(331.62066935836856 598.4530716677953) rotate(0 0 -25.50994457013121)"><path d="M0 0 C0 -8.5, 0 -42.52, 0 -51.02 M0 0 C0 -8.5, 0 -42.52, 0 -51.02" stroke="#1e1e1e" stroke-width="2" fill="none"></path></g></g><mask></mask><g stroke-linecap="round"><g transform="translate(331.740439602866 547.2287259785178) rotate(0 95.40487503830605 0)"><path d="M0 0 C31.8 0, 159.01 0, 190.81 0 M0 0 C31.8 0, 159.01 0, 190.81 0" stroke="#1e1e1e" stroke-width="2" fill="none"></path></g></g><mask></mask><g stroke-linecap="round" transform="translate(517.9900101382023 421.89184115902896) rotate(0 5.284989705367025 4.680990881896577)"><path d="M10.57 4.68 C10.57 4.95, 10.54 5.23, 10.49 5.49 C10.44 5.76, 10.36 6.03, 10.25 6.28 C10.15 6.54, 10.01 6.79, 9.86 7.02 C9.71 7.26, 9.53 7.48, 9.33 7.69 C9.14 7.9, 8.92 8.09, 8.68 8.27 C8.45 8.44, 8.19 8.6, 7.93 8.73 C7.66 8.87, 7.38 8.99, 7.09 9.08 C6.81 9.17, 6.5 9.24, 6.2 9.29 C5.9 9.34, 5.59 9.36, 5.28 9.36 C4.98 9.36, 4.67 9.34, 4.37 9.29 C4.07 9.24, 3.76 9.17, 3.48 9.08 C3.19 8.99, 2.91 8.87, 2.64 8.73 C2.38 8.6, 2.12 8.44, 1.89 8.27 C1.65 8.09, 1.43 7.9, 1.24 7.69 C1.04 7.48, 0.86 7.26, 0.71 7.02 C0.56 6.79, 0.42 6.54, 0.32 6.28 C0.21 6.03, 0.13 5.76, 0.08 5.49 C0.03 5.23, 0 4.95, 0 4.68 C0 4.41, 0.03 4.13, 0.08 3.87 C0.13 3.6, 0.21 3.33, 0.32 3.08 C0.42 2.83, 0.56 2.58, 0.71 2.34 C0.86 2.11, 1.04 1.88, 1.24 1.67 C1.43 1.46, 1.65 1.27, 1.89 1.1 C2.12 0.92, 2.38 0.76, 2.64 0.63 C2.91 0.49, 3.19 0.37, 3.48 0.28 C3.76 0.19, 4.07 0.12, 4.37 0.07 C4.67 0.02, 4.98 0, 5.28 0 C5.59 0, 5.9 0.02, 6.2 0.07 C6.5 0.12, 6.81 0.19, 7.09 0.28 C7.38 0.37, 7.66 0.49, 7.93 0.63 C8.19 0.76, 8.45 0.92, 8.68 1.1 C8.92 1.27, 9.14 1.46, 9.33 1.67 C9.53 1.88, 9.71 2.11, 9.86 2.34 C10.01 2.58, 10.15 2.83, 10.25 3.08 C10.36 3.33, 10.44 3.6, 10.49 3.87 C10.54 4.13, 10.56 4.55, 10.57 4.68 C10.58 4.82, 10.58 4.55, 10.57 4.68" stroke="none" stroke-width="0" fill="#e9ecef"></path><path d="M10.57 4.68 C10.57 4.95, 10.54 5.23, 10.49 5.49 C10.44 5.76, 10.36 6.03, 10.25 6.28 C10.15 6.54, 10.01 6.79, 9.86 7.02 C9.71 7.26, 9.53 7.48, 9.33 7.69 C9.14 7.9, 8.92 8.09, 8.68 8.27 C8.45 8.44, 8.19 8.6, 7.93 8.73 C7.66 8.87, 7.38 8.99, 7.09 9.08 C6.81 9.17, 6.5 9.24, 6.2 9.29 C5.9 9.34, 5.59 9.36, 5.28 9.36 C4.98 9.36, 4.67 9.34, 4.37 9.29 C4.07 9.24, 3.76 9.17, 3.48 9.08 C3.19 8.99, 2.91 8.87, 2.64 8.73 C2.38 8.6, 2.12 8.44, 1.89 8.27 C1.65 8.09, 1.43 7.9, 1.24 7.69 C1.04 7.48, 0.86 7.26, 0.71 7.02 C0.56 6.79, 0.42 6.54, 0.32 6.28 C0.21 6.03, 0.13 5.76, 0.08 5.49 C0.03 5.23, 0 4.95, 0 4.68 C0 4.41, 0.03 4.13, 0.08 3.87 C0.13 3.6, 0.21 3.33, 0.32 3.08 C0.42 2.83, 0.56 2.58, 0.71 2.34 C0.86 2.11, 1.04 1.88, 1.24 1.67 C1.43 1.46, 1.65 1.27, 1.89 1.1 C2.12 0.92, 2.38 0.76, 2.64 0.63 C2.91 0.49, 3.19 0.37, 3.48 0.28 C3.76 0.19, 4.07 0.12, 4.37 0.07 C4.67 0.02, 4.98 0, 5.28 0 C5.59 0, 5.9 0.02, 6.2 0.07 C6.5 0.12, 6.81 0.19, 7.09 0.28 C7.38 0.37, 7.66 0.49, 7.93 0.63 C8.19 0.76, 8.45 0.92, 8.68 1.1 C8.92 1.27, 9.14 1.46, 9.33 1.67 C9.53 1.88, 9.71 2.11, 9.86 2.34 C10.01 2.58, 10.15 2.83, 10.25 3.08 C10.36 3.33, 10.44 3.6, 10.49 3.87 C10.54 4.13, 10.56 4.55, 10.57 4.68 C10.58 4.82, 10.58 4.55, 10.57 4.68" stroke="#1e1e1e" stroke-width="2" fill="none"></path></g><g stroke-linecap="round"><g transform="translate(522.9125947463135 431.5637221483411) rotate(0 0 57.87751147908017)"><path d="M0 0 C0 19.29, 0 96.46, 0 115.76 M0 0 C0 19.29, 0 96.46, 0 115.76" stroke="#1e1e1e" stroke-width="2" fill="none"></path></g></g><mask></mask><g stroke-linecap="round" transform="translate(917.013534784252 212.80773551035975) rotate(178.97696981133146 33.967300176635035 29.448999261064756)"><path d="M34 0 L67.93 30 L34 58.9 L0 30" stroke="none" stroke-width="0" fill="#1e1e1e" fill-rule="evenodd"></path><path d="M34 0 C44.11 8.94, 54.23 17.88, 67.93 30 M34 0 C45.8 10.43, 57.6 20.86, 67.93 30 M67.93 30 C58.68 37.88, 49.43 45.76, 34 58.9 M67.93 30 C60.55 36.29, 53.17 42.57, 34 58.9 M34 58.9 C24.76 51.05, 15.53 43.2, 0 30 M34 58.9 C24.27 50.63, 14.54 42.36, 0 30 M0 30 C12.43 19.03, 24.86 8.07, 34 0 M0 30 C12.04 19.38, 24.08 8.76, 34 0" stroke="#000000" stroke-width="1" fill="none"></path></g><g stroke-linecap="round" transform="translate(914.5589776570482 131.7039902345179) rotate(178.97696981133146 33.967300176635035 29.448999261064756)"><path d="M34 0 L67.93 30 L34 58.9 L0 30" stroke="none" stroke-width="0" fill="#fff" fill-rule="evenodd"></path><path d="M34 0 C46.97 11.47, 59.94 22.94, 67.93 30 M34 0 C45.78 10.41, 57.56 20.83, 67.93 30 M67.93 30 C56.16 40.02, 44.39 50.05, 34 58.9 M67.93 30 C59.22 37.42, 50.51 44.84, 34 58.9 M34 58.9 C24.66 50.96, 15.31 43.02, 0 30 M34 58.9 C25.35 51.55, 16.7 44.2, 0 30 M0 30 C11.23 20.09, 22.45 10.19, 34 0 M0 30 C11.79 19.6, 23.58 9.19, 34 0" stroke="#000000" stroke-width="1" fill="none"></path></g><g stroke-linecap="round"><g transform="translate(948.6027369368248 132.35477222816928) rotate(178.97696981133146 -0.16729811543177675 28.449512984720855)"><path d="M0 0 C-0.06 9.48, -0.28 47.42, -0.33 56.9 M0 0 C-0.06 9.48, -0.28 47.42, -0.33 56.9" stroke="#1e1e1e" stroke-width="2" fill="none"></path></g></g><mask></mask><g transform="translate(927.686860560525 150.0379963193564) rotate(178.97696981133146 7.606316894397196 11.811491064159753)" stroke="none"><path d="M0 0 C0.33 0.93, 1.74 1.66, 1.96 5.6 C2.17 9.54, 0.11 21.72, 1.3 23.62 C2.5 25.53, 6.81 18.63, 9.13 17.05 C11.45 15.46, 15.57 15.46, 15.21 14.13 C14.85 12.79, 8.87 10.96, 6.95 9.01 C5.03 7.06, 4.24 3.53, 3.69 2.44" stroke="none" stroke-width="0" fill="#e9ecef" fill-rule="evenodd"></path><path fill="#1e1e1e" d="M 4.66,-1.58 Q 4.66,-1.58 5.25,-0.14 5.85,1.29 6.64,3.87 7.43,6.45 7.64,8.57 7.85,10.70 7.88,13.33 7.90,15.96 7.88,18.10 7.86,20.23 5.34,18.63 2.82,17.04 0.33,17.72 -2.15,18.41 -0.62,16.67 0.91,14.92 2.98,13.51 5.05,12.11 7.52,10.57 9.98,9.04 8.85,12.36 7.72,15.69 9.28,17.77 10.84,19.85 8.85,18.29 6.86,16.74 8.64,18.07 10.43,19.41 8.32,18.20 6.20,16.99 4.49,15.73 2.78,14.46 1.38,12.58 -0.00,10.69 -1.02,8.30 -2.04,5.92 -0.46,7.75 1.11,9.58 0.05,8.97 -1.01,8.36 -1.82,7.43 -2.63,6.51 -3.11,5.38 -3.59,4.24 -3.67,3.01 -3.76,1.79 -3.46,0.60 -3.15,-0.58 -2.48,-1.61 -1.81,-2.65 -0.84,-3.41 0.12,-4.17 1.27,-4.58 2.43,-5.00 3.66,-5.02 4.89,-5.04 6.06,-4.67 7.24,-4.30 8.23,-3.57 9.22,-2.85 9.93,-1.84 10.64,-0.84 10.99,0.33 11.34,1.51 11.30,2.74 11.25,3.97 10.82,5.12 10.38,6.27 9.60,7.22 8.82,8.18 7.78,8.83 6.74,9.48 5.54,9.77 4.35,10.05 3.12,9.94 1.90,9.83 0.77,9.34 -0.34,8.84 -1.25,8.01 -2.16,7.18 -2.76,6.11 -3.35,5.03 -3.57,3.82 -3.79,2.61 -3.62,1.39 -3.44,0.17 -2.88,-0.91 -2.33,-2.01 -1.45,-2.87 -0.57,-3.73 0.53,-4.27 1.63,-4.81 2.85,-4.96 4.07,-5.12 5.28,-4.87 6.48,-4.63 6.48,-4.63 6.48,-4.63 9.00,-1.89 11.52,0.84 12.76,3.56 14.00,6.29 12.54,4.71 11.09,3.13 13.25,4.32 15.41,5.50 17.44,7.26 19.48,9.02 17.36,7.49 15.23,5.97 17.82,7.59 20.40,9.20 20.70,12.72 21.00,16.24 19.34,18.50 17.67,20.75 14.82,22.03 11.97,23.31 10.25,25.16 8.54,27.01 6.18,28.51 3.81,30.01 0.58,29.42 -2.64,28.83 -4.01,25.59 -5.37,22.35 -5.23,20.14 -5.09,17.92 -4.63,15.81 -4.18,13.70 -3.98,11.33 -3.78,8.96 -3.82,6.77 -3.85,4.59 -4.25,3.08 -4.66,1.58 -4.78,1.00 -4.90,0.42 -4.88,-0.17 -4.86,-0.76 -4.70,-1.33 -4.54,-1.90 -4.24,-2.42 -3.95,-2.93 -3.54,-3.36 -3.13,-3.79 -2.63,-4.11 -2.13,-4.43 -1.57,-4.62 -1.01,-4.82 -0.41,-4.87 0.17,-4.92 0.75,-4.83 1.34,-4.73 1.89,-4.50 2.43,-4.27 2.91,-3.92 3.39,-3.57 3.77,-3.11 4.14,-2.65 4.40,-2.11 4.66,-1.58 4.66,-1.58 L 4.66,-1.58 Z"></path></g><g transform="translate(921.7270092340991 177.67521162514674) rotate(178.97696981133146 10.997971786207245 -16.96072757390985)" stroke="none"><path fill="#1e1e1e" d="M 2.53,0 Q 2.53,0 2.57,0.70 2.61,1.41 2.22,2.94 1.82,4.47 1.26,5.39 0.71,6.32 0.58,6.55 0.45,6.79 0.17,7.01 -0.10,7.23 -0.43,7.38 -0.75,7.53 -1.10,7.59 -1.45,7.66 -1.80,7.64 -2.16,7.62 -2.50,7.52 -2.84,7.41 -3.15,7.23 -3.45,7.05 -3.71,6.80 -3.96,6.55 -4.15,6.24 -4.33,5.94 -4.44,5.60 -4.55,5.26 -4.57,4.90 -4.59,4.55 -4.53,4.20 -4.47,3.85 -4.33,3.52 -4.18,3.20 -3.96,2.91 -3.74,2.63 -4.12,3.98 -4.49,5.33 -4.18,3.52 -3.87,1.71 -3.72,0.63 -3.56,-0.44 -3.24,-1.76 -2.92,-3.08 -2.49,-4.44 -2.06,-5.80 -1.21,-6.51 -0.37,-7.23 1.06,-7.57 2.50,-7.91 3.01,-8.12 3.53,-8.34 3.93,-8.49 4.33,-8.64 4.75,-8.69 5.17,-8.74 5.60,-8.69 6.02,-8.64 6.42,-8.48 6.81,-8.33 7.16,-8.09 7.51,-7.85 7.80,-7.53 8.08,-7.21 8.28,-6.83 8.47,-6.45 8.57,-6.03 8.67,-5.62 8.67,-5.19 8.67,-4.77 8.57,-4.35 8.46,-3.94 8.27,-3.56 8.07,-3.19 7.78,-2.87 7.50,-2.55 7.15,-2.31 6.80,-2.07 5.82,-1.30 4.84,-0.52 4.45,0.79 4.06,2.12 3.06,3.44 2.06,4.76 2.24,4.70 2.42,4.64 2.17,5.01 1.92,5.38 1.59,5.68 1.25,5.98 0.86,6.19 0.46,6.40 0.03,6.51 -0.40,6.62 -0.85,6.63 -1.30,6.63 -1.73,6.52 -2.17,6.42 -2.57,6.21 -2.97,6.01 -3.30,5.71 -3.64,5.42 -3.90,5.05 -4.16,4.68 -4.32,4.27 -4.48,3.85 -4.54,3.40 -4.60,2.96 -4.55,2.51 -4.49,2.07 -4.34,1.65 -4.18,1.23 -2.61,0.28 -1.04,-0.65 -0.31,-1.45 0.41,-2.25 1.38,-3.08 2.34,-3.91 3.53,-4.73 4.72,-5.54 5.85,-6.15 6.98,-6.77 7.82,-7.64 8.66,-8.52 9.50,-9.49 10.33,-10.47 11.39,-11.21 12.44,-11.95 13.62,-12.54 14.79,-13.14 15.61,-14.20 16.44,-15.26 17.68,-16.43 18.92,-17.59 19.79,-18.36 20.66,-19.12 20.55,-17.51 20.44,-15.89 18.99,-16.60 17.53,-17.31 16.61,-17.95 15.68,-18.58 14.59,-19.97 13.50,-21.35 12.45,-22.66 11.40,-23.97 10.57,-24.91 9.75,-25.86 10.51,-25.04 11.26,-24.21 10.39,-24.87 9.52,-25.53 8.65,-26.21 7.78,-26.88 6.69,-28.02 5.60,-29.15 4.70,-30.06 3.79,-30.96 2.87,-31.49 1.95,-32.01 1.08,-32.67 0.22,-33.33 -1.55,-35.42 -3.32,-37.50 -3.45,-38.12 -3.58,-38.73 -3.50,-39.35 -3.42,-39.97 -3.15,-40.54 -2.88,-41.10 -2.44,-41.55 -2.00,-42.00 -1.45,-42.29 -0.89,-42.57 -0.27,-42.67 0.34,-42.76 0.96,-42.65 1.58,-42.54 2.12,-42.24 2.67,-41.94 3.10,-41.47 3.52,-41.01 3.78,-40.44 4.03,-39.87 4.09,-39.24 4.15,-38.62 4.01,-38.01 3.86,-37.40 3.53,-36.87 3.20,-36.33 2.72,-35.93 2.24,-35.54 1.65,-35.31 1.06,-35.09 0.44,-35.06 -0.18,-35.04 -0.78,-35.22 -1.38,-35.39 -1.90,-35.75 -2.41,-36.11 -2.78,-36.61 -3.15,-37.12 -3.34,-37.72 -3.54,-38.31 -3.53,-38.94 -3.52,-39.57 -3.31,-40.16 -3.10,-40.75 -2.71,-41.24 -2.33,-41.74 -1.80,-42.08 -1.28,-42.42 -0.67,-42.58 -0.07,-42.74 0.55,-42.70 1.17,-42.66 1.75,-42.42 2.33,-42.18 2.80,-41.76 3.27,-41.35 3.59,-40.81 3.91,-40.27 3.91,-40.27 3.91,-40.27 4.59,-39.70 5.28,-39.13 6.35,-38.30 7.41,-37.47 8.84,-36.36 10.27,-35.24 11.10,-34.24 11.92,-33.24 12.88,-32.58 13.85,-31.91 14.85,-31.01 15.85,-30.10 16.49,-29.21 17.12,-28.33 18.03,-27.05 18.94,-25.77 18.17,-26.56 17.41,-27.35 18.34,-26.65 19.27,-25.95 20.30,-24.78 21.32,-23.62 22.29,-23.06 23.27,-22.51 24.36,-21.88 25.44,-21.25 26.18,-20.48 26.91,-19.71 27.24,-18.49 27.57,-17.26 26.99,-15.78 26.41,-14.30 25.29,-13.23 24.17,-12.16 23.19,-11.42 22.21,-10.67 21.40,-9.55 20.59,-8.42 19.22,-7.29 17.84,-6.17 16.67,-5.86 15.49,-5.54 14.80,-4.41 14.12,-3.29 13.34,-2.40 12.56,-1.51 11.47,-1.00 10.39,-0.49 9.35,0.09 8.32,0.68 7.13,1.60 5.93,2.53 4.91,3.25 3.90,3.97 3.11,4.70 2.33,5.42 1.16,5.96 -0.00,6.50 1.21,5.57 2.42,4.64 2.17,5.01 1.92,5.38 1.59,5.68 1.25,5.98 0.86,6.19 0.46,6.40 0.03,6.51 -0.40,6.62 -0.85,6.63 -1.30,6.63 -1.73,6.52 -2.17,6.42 -2.57,6.22 -2.97,6.01 -3.30,5.71 -3.64,5.42 -3.90,5.05 -4.16,4.68 -4.32,4.27 -4.48,3.85 -4.54,3.40 -4.60,2.96 -4.55,2.51 -4.49,2.07 -4.34,1.65 -4.18,1.23 -3.44,0.24 -2.69,-0.74 -2.03,-1.88 -1.37,-3.02 -0.86,-4.14 -0.35,-5.26 0.55,-6.12 1.47,-6.98 2.50,-7.66 3.53,-8.34 3.93,-8.49 4.32,-8.64 4.75,-8.69 5.17,-8.74 5.59,-8.69 6.02,-8.64 6.42,-8.48 6.81,-8.33 7.16,-8.09 7.51,-7.85 7.80,-7.53 8.08,-7.21 8.28,-6.83 8.47,-6.45 8.57,-6.04 8.67,-5.62 8.67,-5.19 8.67,-4.77 8.57,-4.35 8.46,-3.94 8.27,-3.56 8.07,-3.19 7.78,-2.87 7.50,-2.55 7.15,-2.31 6.80,-2.07 6.27,-1.89 5.75,-1.72 4.09,-1.34 2.43,-0.97 3.02,-1.86 3.61,-2.75 3.28,-1.63 2.95,-0.50 2.61,0.52 2.28,1.56 1.62,2.55 0.96,3.55 0.70,5.17 0.45,6.79 0.17,7.01 -0.10,7.23 -0.42,7.38 -0.75,7.53 -1.10,7.59 -1.45,7.66 -1.80,7.64 -2.16,7.62 -2.50,7.52 -2.84,7.41 -3.15,7.23 -3.45,7.05 -3.71,6.80 -3.96,6.55 -4.15,6.24 -4.33,5.94 -4.44,5.60 -4.55,5.26 -4.57,4.90 -4.59,4.55 -4.53,4.20 -4.47,3.85 -4.33,3.52 -4.18,3.20 -3.96,2.91 -3.74,2.63 -3.18,1.98 -2.61,1.32 -2.57,0.66 -2.53,0 -2.49,-0.30 -2.45,-0.60 -2.35,-0.89 -2.24,-1.17 -2.06,-1.42 -1.89,-1.67 -1.66,-1.88 -1.43,-2.08 -1.16,-2.22 -0.89,-2.36 -0.60,-2.44 -0.30,-2.51 0.00,-2.51 0.30,-2.51 0.60,-2.44 0.89,-2.36 1.16,-2.22 1.43,-2.08 1.66,-1.88 1.89,-1.67 2.06,-1.42 2.24,-1.17 2.35,-0.89 2.45,-0.60 2.49,-0.30 2.53,0.00 2.53,0.00 L 2.53,0 Z"></path></g><g stroke-linecap="round"><g transform="translate(918.3187955937728 158.98027621153432) rotate(178.97696981133146 15.238153679684501 13.648085469630587)"><path d="M0 0 C5.08 4.55, 25.4 22.75, 30.48 27.3 M0 0 C5.08 4.55, 25.4 22.75, 30.48 27.3" stroke="#1e1e1e" stroke-width="1" fill="none"></path></g></g><mask></mask><g stroke-linecap="round"><g transform="translate(916.4671061403551 159.15693248571597) rotate(178.97696981133146 15.473438964167372 -13.210734731763978)"><path d="M0 0 C5.16 -4.4, 25.79 -22.02, 30.95 -26.42 M0 0 C5.16 -4.4, 25.79 -22.02, 30.95 -26.42" stroke="#1e1e1e" stroke-width="1" fill="none"></path></g></g><mask></mask><g stroke-linecap="round"><g transform="translate(916.5396780678029 162.4460275580209) rotate(178.97696981133146 15.85360998766123 13.471527406376055)"><path d="M0 0 C5.28 4.49, 26.42 22.45, 31.71 26.94 M0 0 C5.28 4.49, 26.42 22.45, 31.71 26.94" stroke="#1e1e1e" stroke-width="1" fill="none"></path></g></g><mask></mask><g transform="translate(917.126466643952 161.95746394252296) rotate(0 0 -0.0573143168362833)" stroke="none"><path fill="#1e1e1e" d="M 2.12,-0.66 Q 2.12,-0.66 2.15,-0.13 2.18,0.40 1.96,0.88 1.74,1.36 1.32,1.69 0.91,2.02 0.38,2.12 -0.13,2.21 -0.64,2.05 -1.14,1.90 -1.52,1.52 -1.90,1.14 -2.05,0.64 -2.21,0.13 -2.12,-0.38 -2.02,-0.91 -1.69,-1.32 -1.36,-1.74 -0.88,-1.96 -0.39,-2.18 0.13,-2.15 0.66,-2.11 1.11,-1.84 1.57,-1.56 1.84,-1.11 L 2.12,-0.66 Z"></path></g><g transform="translate(946.9937915878891 138.33688116285265) rotate(0 -11.12095809680045 12.015747828726916)" stroke="none"><path fill="#1e1e1e" d="M 1.55,2.09 Q 1.55,2.09 0.93,2.60 0.31,3.11 -0.53,3.93 -1.39,4.74 -2.21,5.51 -3.03,6.28 -3.99,7.17 -4.95,8.06 -5.83,8.93 -6.71,9.81 -7.58,10.81 -8.45,11.82 -9.13,12.70 -9.81,13.58 -10.47,14.67 -11.14,15.76 -11.82,17.38 -12.49,19.01 -13.02,19.94 -13.54,20.87 -14.34,21.81 -15.13,22.75 -15.96,23.47 -16.80,24.19 -18.03,25.26 -19.26,26.33 -19.71,26.74 -20.15,27.16 -20.71,27.41 -21.26,27.66 -21.86,27.72 -22.47,27.78 -23.06,27.64 -23.66,27.51 -24.18,27.19 -24.69,26.87 -25.08,26.41 -25.47,25.94 -25.69,25.37 -25.92,24.81 -25.94,24.20 -25.97,23.59 -25.80,23.01 -25.64,22.42 -25.29,21.92 -24.95,21.42 -24.46,21.05 -23.97,20.69 -23.39,20.50 -22.82,20.31 -22.21,20.32 -21.60,20.32 -21.02,20.52 -20.45,20.72 -19.97,21.09 -19.49,21.46 -19.15,21.97 -18.81,22.48 -18.65,23.06 -18.50,23.65 -18.53,24.26 -18.57,24.86 -18.80,25.43 -19.03,25.99 -19.43,26.45 -19.83,26.91 -20.35,27.22 -20.87,27.53 -21.47,27.66 -22.06,27.78 -22.67,27.71 -23.27,27.64 -23.82,27.38 -24.37,27.12 -24.81,26.70 -25.25,26.28 -25.53,25.74 -25.81,25.20 -25.90,24.60 -26.00,24.00 -25.89,23.40 -25.79,22.80 -25.50,22.26 -25.21,21.73 -25.21,21.73 -25.21,21.73 -23.19,19.93 -21.18,18.13 -20.32,17.29 -19.47,16.44 -18.94,15.52 -18.40,14.59 -17.95,13.52 -17.50,12.45 -16.79,11.35 -16.09,10.24 -15.44,9.40 -14.78,8.55 -13.92,7.62 -13.05,6.69 -12.08,5.80 -11.11,4.91 -9.92,3.94 -8.74,2.98 -7.81,2.30 -6.89,1.62 -6.01,0.99 -5.13,0.36 -4.01,-0.42 -2.89,-1.20 -2.22,-1.65 -1.55,-2.09 -1.28,-2.25 -1.00,-2.40 -0.70,-2.49 -0.40,-2.57 -0.08,-2.58 0.22,-2.59 0.53,-2.53 0.84,-2.47 1.12,-2.33 1.40,-2.19 1.64,-1.99 1.89,-1.79 2.07,-1.54 2.26,-1.29 2.38,-1.00 2.51,-0.71 2.55,-0.40 2.60,-0.09 2.58,0.22 2.55,0.53 2.45,0.83 2.35,1.13 2.18,1.39 2.01,1.66 1.78,1.87 1.55,2.09 1.55,2.09 L 1.55,2.09 Z"></path></g><g stroke-linecap="round"><g transform="translate(947.3713913023353 133.86307547431898) rotate(178.97696981133146 -0.46256238171326913 26.66875250870308)"><path d="M0 0 C-0.15 8.89, -0.77 44.45, -0.93 53.34 M0 0 C-0.15 8.89, -0.77 44.45, -0.93 53.34" stroke="#1e1e1e" stroke-width="2" fill="none"></path></g></g><mask></mask><g stroke-linecap="round"><g transform="translate(941.4906741327404 138.20478906498658) rotate(178.97696981133146 2.5684837868291197 -1.7783747957728622)"><path d="M0 0 C0.86 -0.59, 4.28 -2.96, 5.14 -3.56 M0 0 C0.86 -0.59, 4.28 -2.96, 5.14 -3.56" stroke="#1e1e1e" stroke-width="2" fill="none"></path></g></g><mask></mask><g stroke-linecap="round"><g transform="translate(946.3070011643013 186.462786716558) rotate(178.97696981133146 -0.052195096379819006 -4.161340922228078)"><path d="M0 0 C-0.02 -1.39, -0.09 -6.94, -0.1 -8.32 M0 0 C-0.02 -1.39, -0.09 -6.94, -0.1 -8.32" stroke="#1e1e1e" stroke-width="2" fill="none"></path></g></g><mask></mask><g stroke-linecap="round" transform="translate(914.7735636968941 58.76310655795049) rotate(358.97696981133146 33.967300176635035 29.448999261064756)"><path d="M34 0 L67.93 30 L34 58.9 L0 30" stroke="none" stroke-width="0" fill="#fff" fill-rule="evenodd"></path><path d="M34 0 C42.81 7.79, 51.61 15.57, 67.93 30 M34 0 C45.35 10.03, 56.7 20.07, 67.93 30 M67.93 30 C55.94 40.22, 43.94 50.44, 34 58.9 M67.93 30 C60.57 36.27, 53.21 42.54, 34 58.9 M34 58.9 C22.85 49.42, 11.7 39.94, 0 30 M34 58.9 C22.77 49.36, 11.55 39.81, 0 30 M0 30 C12.62 18.87, 25.23 7.74, 34 0 M0 30 C9.16 21.92, 18.32 13.84, 34 0" stroke="#000000" stroke-width="1" fill="none"></path></g><g stroke-linecap="round"><g transform="translate(948.9990010012498 60.11129711698857) rotate(358.97696981133146 -0.16729811543177675 28.449512984720855)"><path d="M0 0 C-0.06 9.48, -0.28 47.42, -0.33 56.9 M0 0 C-0.06 9.48, -0.28 47.42, -0.33 56.9" stroke="#1e1e1e" stroke-width="2" fill="none"></path></g></g><mask></mask><g transform="translate(954.3676473578926 75.70411686692279) rotate(358.97696981133146 7.606316894397196 11.811491064159746)" stroke="none"><path d="M0 0 C0.33 0.93, 1.74 1.66, 1.96 5.6 C2.17 9.54, 0.11 21.72, 1.3 23.62 C2.5 25.53, 6.81 18.63, 9.13 17.05 C11.45 15.46, 15.57 15.46, 15.21 14.13 C14.85 12.79, 8.87 10.96, 6.95 9.01 C5.03 7.06, 4.24 3.53, 3.69 2.44" stroke="none" stroke-width="0" fill="#e9ecef" fill-rule="evenodd"></path><path fill="#1e1e1e" d="M 4.66,-1.58 Q 4.66,-1.58 5.25,-0.14 5.85,1.29 6.64,3.87 7.43,6.45 7.64,8.57 7.85,10.70 7.88,13.33 7.90,15.96 7.88,18.10 7.86,20.23 5.34,18.63 2.82,17.04 0.33,17.72 -2.15,18.41 -0.62,16.67 0.91,14.92 2.98,13.51 5.05,12.11 7.52,10.57 9.98,9.04 8.85,12.36 7.72,15.69 9.28,17.77 10.84,19.85 8.85,18.29 6.86,16.74 8.64,18.07 10.43,19.41 8.32,18.20 6.20,16.99 4.49,15.73 2.78,14.46 1.38,12.58 -0.00,10.69 -1.02,8.30 -2.04,5.92 -0.46,7.75 1.11,9.58 0.05,8.97 -1.01,8.36 -1.82,7.43 -2.63,6.51 -3.11,5.38 -3.59,4.24 -3.67,3.01 -3.76,1.79 -3.46,0.60 -3.15,-0.58 -2.48,-1.61 -1.81,-2.65 -0.84,-3.41 0.12,-4.17 1.27,-4.58 2.43,-5.00 3.66,-5.02 4.89,-5.04 6.06,-4.67 7.24,-4.30 8.23,-3.57 9.22,-2.85 9.93,-1.84 10.64,-0.84 10.99,0.33 11.34,1.51 11.30,2.74 11.25,3.97 10.82,5.12 10.38,6.27 9.60,7.22 8.82,8.18 7.78,8.83 6.74,9.48 5.54,9.77 4.35,10.05 3.12,9.94 1.90,9.83 0.77,9.34 -0.34,8.84 -1.25,8.01 -2.16,7.18 -2.76,6.11 -3.35,5.03 -3.57,3.82 -3.79,2.61 -3.62,1.39 -3.44,0.17 -2.88,-0.91 -2.33,-2.01 -1.45,-2.87 -0.57,-3.73 0.53,-4.27 1.63,-4.81 2.85,-4.96 4.07,-5.12 5.28,-4.87 6.48,-4.63 6.48,-4.63 6.48,-4.63 9.00,-1.89 11.52,0.84 12.76,3.56 14.00,6.29 12.54,4.71 11.09,3.13 13.25,4.32 15.41,5.50 17.44,7.26 19.48,9.02 17.36,7.49 15.23,5.97 17.82,7.59 20.40,9.20 20.70,12.72 21.00,16.24 19.34,18.50 17.67,20.75 14.82,22.03 11.97,23.31 10.25,25.16 8.54,27.01 6.18,28.51 3.81,30.01 0.58,29.42 -2.64,28.83 -4.01,25.59 -5.37,22.35 -5.23,20.14 -5.09,17.92 -4.63,15.81 -4.18,13.70 -3.98,11.33 -3.78,8.96 -3.82,6.77 -3.85,4.59 -4.25,3.08 -4.66,1.58 -4.78,1.00 -4.90,0.42 -4.88,-0.17 -4.86,-0.76 -4.70,-1.33 -4.54,-1.90 -4.24,-2.42 -3.95,-2.93 -3.54,-3.36 -3.13,-3.79 -2.63,-4.11 -2.13,-4.43 -1.57,-4.62 -1.01,-4.82 -0.41,-4.87 0.17,-4.92 0.75,-4.83 1.34,-4.73 1.89,-4.50 2.43,-4.27 2.91,-3.92 3.39,-3.57 3.77,-3.11 4.14,-2.65 4.40,-2.11 4.66,-1.58 4.66,-1.58 L 4.66,-1.58 Z"></path></g><g transform="translate(953.5441889006984 105.61133883727098) rotate(358.97696981133146 10.997971786207245 -16.96072757390985)" stroke="none"><path fill="#1e1e1e" d="M 2.53,0 Q 2.53,0 2.57,0.70 2.61,1.41 2.22,2.94 1.82,4.47 1.26,5.39 0.71,6.32 0.58,6.55 0.45,6.79 0.17,7.01 -0.10,7.23 -0.43,7.38 -0.75,7.53 -1.10,7.59 -1.45,7.66 -1.80,7.64 -2.16,7.62 -2.50,7.52 -2.84,7.41 -3.15,7.23 -3.45,7.05 -3.71,6.80 -3.96,6.55 -4.15,6.24 -4.33,5.94 -4.44,5.60 -4.55,5.26 -4.57,4.90 -4.59,4.55 -4.53,4.20 -4.47,3.85 -4.33,3.52 -4.18,3.20 -3.96,2.91 -3.74,2.63 -4.12,3.98 -4.49,5.33 -4.18,3.52 -3.87,1.71 -3.72,0.63 -3.56,-0.44 -3.24,-1.76 -2.92,-3.08 -2.49,-4.44 -2.06,-5.80 -1.21,-6.51 -0.37,-7.23 1.06,-7.57 2.50,-7.91 3.01,-8.12 3.53,-8.34 3.93,-8.49 4.33,-8.64 4.75,-8.69 5.17,-8.74 5.60,-8.69 6.02,-8.64 6.42,-8.48 6.81,-8.33 7.16,-8.09 7.51,-7.85 7.80,-7.53 8.08,-7.21 8.28,-6.83 8.47,-6.45 8.57,-6.03 8.67,-5.62 8.67,-5.19 8.67,-4.77 8.57,-4.35 8.46,-3.94 8.27,-3.56 8.07,-3.19 7.78,-2.87 7.50,-2.55 7.15,-2.31 6.80,-2.07 5.82,-1.30 4.84,-0.52 4.45,0.79 4.06,2.12 3.06,3.44 2.06,4.76 2.24,4.70 2.42,4.64 2.17,5.01 1.92,5.38 1.59,5.68 1.25,5.98 0.86,6.19 0.46,6.40 0.03,6.51 -0.40,6.62 -0.85,6.63 -1.30,6.63 -1.73,6.52 -2.17,6.42 -2.57,6.21 -2.97,6.01 -3.30,5.71 -3.64,5.42 -3.90,5.05 -4.16,4.68 -4.32,4.27 -4.48,3.85 -4.54,3.40 -4.60,2.96 -4.55,2.51 -4.49,2.07 -4.34,1.65 -4.18,1.23 -2.61,0.28 -1.04,-0.65 -0.31,-1.45 0.41,-2.25 1.38,-3.08 2.34,-3.91 3.53,-4.73 4.72,-5.54 5.85,-6.15 6.98,-6.77 7.82,-7.64 8.66,-8.52 9.50,-9.49 10.33,-10.47 11.39,-11.21 12.44,-11.95 13.62,-12.54 14.79,-13.14 15.61,-14.20 16.44,-15.26 17.68,-16.43 18.92,-17.59 19.79,-18.36 20.66,-19.12 20.55,-17.51 20.44,-15.89 18.99,-16.60 17.53,-17.31 16.61,-17.95 15.68,-18.58 14.59,-19.97 13.50,-21.35 12.45,-22.66 11.40,-23.97 10.57,-24.91 9.75,-25.86 10.51,-25.04 11.26,-24.21 10.39,-24.87 9.52,-25.53 8.65,-26.21 7.78,-26.88 6.69,-28.02 5.60,-29.15 4.70,-30.06 3.79,-30.96 2.87,-31.49 1.95,-32.01 1.08,-32.67 0.22,-33.33 -1.55,-35.42 -3.32,-37.50 -3.45,-38.12 -3.58,-38.73 -3.50,-39.35 -3.42,-39.97 -3.15,-40.54 -2.88,-41.10 -2.44,-41.55 -2.00,-42.00 -1.45,-42.29 -0.89,-42.57 -0.27,-42.67 0.34,-42.76 0.96,-42.65 1.58,-42.54 2.12,-42.24 2.67,-41.94 3.10,-41.47 3.52,-41.01 3.78,-40.44 4.03,-39.87 4.09,-39.24 4.15,-38.62 4.01,-38.01 3.86,-37.40 3.53,-36.87 3.20,-36.33 2.72,-35.93 2.24,-35.54 1.65,-35.31 1.06,-35.09 0.44,-35.06 -0.18,-35.04 -0.78,-35.22 -1.38,-35.39 -1.90,-35.75 -2.41,-36.11 -2.78,-36.61 -3.15,-37.12 -3.34,-37.72 -3.54,-38.31 -3.53,-38.94 -3.52,-39.57 -3.31,-40.16 -3.10,-40.75 -2.71,-41.24 -2.33,-41.74 -1.80,-42.08 -1.28,-42.42 -0.67,-42.58 -0.07,-42.74 0.55,-42.70 1.17,-42.66 1.75,-42.42 2.33,-42.18 2.80,-41.76 3.27,-41.35 3.59,-40.81 3.91,-40.27 3.91,-40.27 3.91,-40.27 4.59,-39.70 5.28,-39.13 6.35,-38.30 7.41,-37.47 8.84,-36.36 10.27,-35.24 11.10,-34.24 11.92,-33.24 12.88,-32.58 13.85,-31.91 14.85,-31.01 15.85,-30.10 16.49,-29.21 17.12,-28.33 18.03,-27.05 18.94,-25.77 18.17,-26.56 17.41,-27.35 18.34,-26.65 19.27,-25.95 20.30,-24.78 21.32,-23.62 22.29,-23.06 23.27,-22.51 24.36,-21.88 25.44,-21.25 26.18,-20.48 26.91,-19.71 27.24,-18.49 27.57,-17.26 26.99,-15.78 26.41,-14.30 25.29,-13.23 24.17,-12.16 23.19,-11.42 22.21,-10.67 21.40,-9.55 20.59,-8.42 19.22,-7.29 17.84,-6.17 16.67,-5.86 15.49,-5.54 14.80,-4.41 14.12,-3.29 13.34,-2.40 12.56,-1.51 11.47,-1.00 10.39,-0.49 9.35,0.09 8.32,0.68 7.13,1.60 5.93,2.53 4.91,3.25 3.90,3.97 3.11,4.70 2.33,5.42 1.16,5.96 -0.00,6.50 1.21,5.57 2.42,4.64 2.17,5.01 1.92,5.38 1.59,5.68 1.25,5.98 0.86,6.19 0.46,6.40 0.03,6.51 -0.40,6.62 -0.85,6.63 -1.30,6.63 -1.73,6.52 -2.17,6.42 -2.57,6.22 -2.97,6.01 -3.30,5.71 -3.64,5.42 -3.90,5.05 -4.16,4.68 -4.32,4.27 -4.48,3.85 -4.54,3.40 -4.60,2.96 -4.55,2.51 -4.49,2.07 -4.34,1.65 -4.18,1.23 -3.44,0.24 -2.69,-0.74 -2.03,-1.88 -1.37,-3.02 -0.86,-4.14 -0.35,-5.26 0.55,-6.12 1.47,-6.98 2.50,-7.66 3.53,-8.34 3.93,-8.49 4.32,-8.64 4.75,-8.69 5.17,-8.74 5.59,-8.69 6.02,-8.64 6.42,-8.48 6.81,-8.33 7.16,-8.09 7.51,-7.85 7.80,-7.53 8.08,-7.21 8.28,-6.83 8.47,-6.45 8.57,-6.04 8.67,-5.62 8.67,-5.19 8.67,-4.77 8.57,-4.35 8.46,-3.94 8.27,-3.56 8.07,-3.19 7.78,-2.87 7.50,-2.55 7.15,-2.31 6.80,-2.07 6.27,-1.89 5.75,-1.72 4.09,-1.34 2.43,-0.97 3.02,-1.86 3.61,-2.75 3.28,-1.63 2.95,-0.50 2.61,0.52 2.28,1.56 1.62,2.55 0.96,3.55 0.70,5.17 0.45,6.79 0.17,7.01 -0.10,7.23 -0.42,7.38 -0.75,7.53 -1.10,7.59 -1.45,7.66 -1.80,7.64 -2.16,7.62 -2.50,7.52 -2.84,7.41 -3.15,7.23 -3.45,7.05 -3.71,6.80 -3.96,6.55 -4.15,6.24 -4.33,5.94 -4.44,5.60 -4.55,5.26 -4.57,4.90 -4.59,4.55 -4.53,4.20 -4.47,3.85 -4.33,3.52 -4.18,3.20 -3.96,2.91 -3.74,2.63 -3.18,1.98 -2.61,1.32 -2.57,0.66 -2.53,0 -2.49,-0.30 -2.45,-0.60 -2.35,-0.89 -2.24,-1.17 -2.06,-1.42 -1.89,-1.67 -1.66,-1.88 -1.43,-2.08 -1.16,-2.22 -0.89,-2.36 -0.60,-2.44 -0.30,-2.51 0.00,-2.51 0.30,-2.51 0.60,-2.44 0.89,-2.36 1.16,-2.22 1.43,-2.08 1.66,-1.88 1.89,-1.67 2.06,-1.42 2.24,-1.17 2.35,-0.89 2.45,-0.60 2.49,-0.30 2.53,0.00 2.53,0.00 L 2.53,0 Z"></path></g><g stroke-linecap="round"><g transform="translate(948.4720387540715 63.08864816380276) rotate(358.97696981133146 15.238153679684501 13.648085469630587)"><path d="M0 0 C5.08 4.55, 25.4 22.75, 30.48 27.3 M0 0 C5.08 4.55, 25.4 22.75, 30.48 27.3" stroke="#1e1e1e" stroke-width="1" fill="none"></path></g></g><mask></mask><g stroke-linecap="round"><g transform="translate(949.8531576385221 116.6296322924104) rotate(358.97696981133146 15.473438964167372 -13.210734731763978)"><path d="M0 0 C5.16 -4.4, 25.79 -22.02, 30.95 -26.42 M0 0 C5.16 -4.4, 25.79 -22.02, 30.95 -26.42" stroke="#1e1e1e" stroke-width="1" fill="none"></path></g></g><mask></mask><g stroke-linecap="round"><g transform="translate(949.020243664087 59.976012943825424) rotate(358.97696981133146 15.85360998766123 13.471527406376055)"><path d="M0 0 C5.28 4.49, 26.42 22.45, 31.71 26.94 M0 0 C5.28 4.49, 26.42 22.45, 31.71 26.94" stroke="#1e1e1e" stroke-width="1" fill="none"></path></g></g><mask></mask><g transform="translate(980.14067506326 87.5222600057478) rotate(180 0 -0.0573143168362833)" stroke="none"><path fill="#1e1e1e" d="M 2.12,-0.66 Q 2.12,-0.66 2.15,-0.13 2.18,0.40 1.96,0.88 1.74,1.36 1.32,1.69 0.91,2.02 0.38,2.12 -0.13,2.21 -0.64,2.05 -1.14,1.90 -1.52,1.52 -1.90,1.14 -2.05,0.64 -2.21,0.13 -2.12,-0.38 -2.02,-0.91 -1.69,-1.32 -1.36,-1.74 -0.88,-1.96 -0.39,-2.18 0.13,-2.15 0.66,-2.11 1.11,-1.84 1.57,-1.56 1.84,-1.11 L 2.12,-0.66 Z"></path></g><g transform="translate(972.5152663129224 86.99671849429262) rotate(180 -11.12095809680045 12.015747828726916)" stroke="none"><path fill="#1e1e1e" d="M 1.55,2.09 Q 1.55,2.09 0.93,2.60 0.31,3.11 -0.53,3.93 -1.39,4.74 -2.21,5.51 -3.03,6.28 -3.99,7.17 -4.95,8.06 -5.83,8.93 -6.71,9.81 -7.58,10.81 -8.45,11.82 -9.13,12.70 -9.81,13.58 -10.47,14.67 -11.14,15.76 -11.82,17.38 -12.49,19.01 -13.02,19.94 -13.54,20.87 -14.34,21.81 -15.13,22.75 -15.96,23.47 -16.80,24.19 -18.01,25.24 -19.23,26.28 -19.67,26.69 -20.12,27.11 -20.67,27.36 -21.22,27.61 -21.83,27.67 -22.43,27.73 -23.03,27.60 -23.62,27.46 -24.14,27.14 -24.66,26.83 -25.05,26.36 -25.44,25.89 -25.66,25.33 -25.88,24.76 -25.91,24.15 -25.93,23.54 -25.77,22.96 -25.60,22.37 -25.25,21.87 -24.91,21.37 -24.42,21.01 -23.94,20.65 -23.36,20.46 -22.78,20.27 -22.17,20.27 -21.56,20.28 -20.99,20.47 -20.41,20.67 -19.93,21.05 -19.45,21.42 -19.11,21.92 -18.78,22.43 -18.62,23.02 -18.46,23.60 -18.50,24.21 -18.54,24.82 -18.77,25.38 -19.00,25.94 -19.39,26.40 -19.79,26.87 -20.31,27.17 -20.84,27.48 -21.43,27.61 -22.03,27.74 -22.63,27.66 -23.24,27.59 -23.79,27.33 -24.34,27.07 -24.77,26.65 -25.21,26.23 -25.49,25.69 -25.77,25.15 -25.87,24.55 -25.96,23.95 -25.86,23.35 -25.75,22.75 -25.46,22.22 -25.18,21.68 -25.18,21.68 -25.18,21.68 -23.18,19.91 -21.18,18.13 -20.32,17.29 -19.47,16.44 -18.94,15.52 -18.40,14.59 -17.95,13.52 -17.50,12.45 -16.79,11.35 -16.09,10.24 -15.44,9.40 -14.78,8.55 -13.92,7.62 -13.05,6.69 -12.08,5.80 -11.11,4.91 -9.92,3.94 -8.74,2.98 -7.81,2.30 -6.89,1.62 -6.01,0.99 -5.13,0.36 -4.01,-0.42 -2.89,-1.20 -2.22,-1.65 -1.55,-2.09 -1.28,-2.25 -1.00,-2.40 -0.70,-2.49 -0.40,-2.57 -0.08,-2.58 0.22,-2.59 0.53,-2.53 0.84,-2.47 1.12,-2.33 1.40,-2.19 1.64,-1.99 1.89,-1.79 2.07,-1.54 2.26,-1.29 2.38,-1.00 2.51,-0.71 2.55,-0.40 2.60,-0.09 2.58,0.22 2.55,0.53 2.45,0.83 2.35,1.13 2.18,1.39 2.01,1.66 1.78,1.87 1.55,2.09 1.55,2.09 L 1.55,2.09 Z"></path></g><g stroke-linecap="round"><g transform="translate(950.8208751683023 62.16451482287431) rotate(358.97696981133146 -0.46256238171326913 26.66875250870308)"><path d="M0 0 C-0.15 8.89, -0.77 44.45, -0.93 53.34 M0 0 C-0.15 8.89, -0.77 44.45, -0.93 53.34" stroke="#1e1e1e" stroke-width="2" fill="none"></path></g></g><mask></mask><g stroke-linecap="round"><g transform="translate(950.6395000008147 114.71705584115955) rotate(358.97696981133146 2.5684837868291197 -1.7783747957728622)"><path d="M0 0 C0.86 -0.59, 4.28 -2.96, 5.14 -3.56 M0 0 C0.86 -0.59, 4.28 -2.96, 5.14 -3.56" stroke="#1e1e1e" stroke-width="2" fill="none"></path></g></g><mask></mask><g stroke-linecap="round"><g transform="translate(951.0645307356713 71.22499044249787) rotate(358.97696981133146 -0.052195096379819006 -4.161340922228078)"><path d="M0 0 C-0.02 -1.39, -0.09 -6.94, -0.1 -8.32 M0 0 C-0.02 -1.39, -0.09 -6.94, -0.1 -8.32" stroke="#1e1e1e" stroke-width="2" fill="none"></path></g></g><mask></mask><g stroke-linecap="round" transform="translate(917.0189493480293 301.64645025871357) rotate(0 5.284989705367025 4.680990881896577)"><path d="M10.57 4.68 C10.57 4.95, 10.54 5.23, 10.49 5.49 C10.44 5.76, 10.36 6.03, 10.25 6.28 C10.15 6.54, 10.01 6.79, 9.86 7.02 C9.71 7.26, 9.53 7.48, 9.33 7.69 C9.14 7.9, 8.92 8.09, 8.68 8.27 C8.45 8.44, 8.19 8.6, 7.93 8.73 C7.66 8.87, 7.38 8.99, 7.09 9.08 C6.81 9.17, 6.5 9.24, 6.2 9.29 C5.9 9.34, 5.59 9.36, 5.28 9.36 C4.98 9.36, 4.67 9.34, 4.37 9.29 C4.07 9.24, 3.76 9.17, 3.48 9.08 C3.19 8.99, 2.91 8.87, 2.64 8.73 C2.38 8.6, 2.12 8.44, 1.89 8.27 C1.65 8.09, 1.43 7.9, 1.24 7.69 C1.04 7.48, 0.86 7.26, 0.71 7.02 C0.56 6.79, 0.42 6.54, 0.32 6.28 C0.21 6.03, 0.13 5.76, 0.08 5.49 C0.03 5.23, 0 4.95, 0 4.68 C0 4.41, 0.03 4.13, 0.08 3.87 C0.13 3.6, 0.21 3.33, 0.32 3.08 C0.42 2.83, 0.56 2.58, 0.71 2.34 C0.86 2.11, 1.04 1.88, 1.24 1.67 C1.43 1.46, 1.65 1.27, 1.89 1.1 C2.12 0.92, 2.38 0.76, 2.64 0.63 C2.91 0.49, 3.19 0.37, 3.48 0.28 C3.76 0.19, 4.07 0.12, 4.37 0.07 C4.67 0.02, 4.98 0, 5.28 0 C5.59 0, 5.9 0.02, 6.2 0.07 C6.5 0.12, 6.81 0.19, 7.09 0.28 C7.38 0.37, 7.66 0.49, 7.93 0.63 C8.19 0.76, 8.45 0.92, 8.68 1.1 C8.92 1.27, 9.14 1.46, 9.33 1.67 C9.53 1.88, 9.71 2.11, 9.86 2.34 C10.01 2.58, 10.15 2.83, 10.25 3.08 C10.36 3.33, 10.44 3.6, 10.49 3.87 C10.54 4.13, 10.56 4.55, 10.57 4.68 C10.58 4.82, 10.58 4.55, 10.57 4.68" stroke="none" stroke-width="0" fill="#e9ecef"></path><path d="M10.57 4.68 C10.57 4.95, 10.54 5.23, 10.49 5.49 C10.44 5.76, 10.36 6.03, 10.25 6.28 C10.15 6.54, 10.01 6.79, 9.86 7.02 C9.71 7.26, 9.53 7.48, 9.33 7.69 C9.14 7.9, 8.92 8.09, 8.68 8.27 C8.45 8.44, 8.19 8.6, 7.93 8.73 C7.66 8.87, 7.38 8.99, 7.09 9.08 C6.81 9.17, 6.5 9.24, 6.2 9.29 C5.9 9.34, 5.59 9.36, 5.28 9.36 C4.98 9.36, 4.67 9.34, 4.37 9.29 C4.07 9.24, 3.76 9.17, 3.48 9.08 C3.19 8.99, 2.91 8.87, 2.64 8.73 C2.38 8.6, 2.12 8.44, 1.89 8.27 C1.65 8.09, 1.43 7.9, 1.24 7.69 C1.04 7.48, 0.86 7.26, 0.71 7.02 C0.56 6.79, 0.42 6.54, 0.32 6.28 C0.21 6.03, 0.13 5.76, 0.08 5.49 C0.03 5.23, 0 4.95, 0 4.68 C0 4.41, 0.03 4.13, 0.08 3.87 C0.13 3.6, 0.21 3.33, 0.32 3.08 C0.42 2.83, 0.56 2.58, 0.71 2.34 C0.86 2.11, 1.04 1.88, 1.24 1.67 C1.43 1.46, 1.65 1.27, 1.89 1.1 C2.12 0.92, 2.38 0.76, 2.64 0.63 C2.91 0.49, 3.19 0.37, 3.48 0.28 C3.76 0.19, 4.07 0.12, 4.37 0.07 C4.67 0.02, 4.98 0, 5.28 0 C5.59 0, 5.9 0.02, 6.2 0.07 C6.5 0.12, 6.81 0.19, 7.09 0.28 C7.38 0.37, 7.66 0.49, 7.93 0.63 C8.19 0.76, 8.45 0.92, 8.68 1.1 C8.92 1.27, 9.14 1.46, 9.33 1.67 C9.53 1.88, 9.71 2.11, 9.86 2.34 C10.01 2.58, 10.15 2.83, 10.25 3.08 C10.36 3.33, 10.44 3.6, 10.49 3.87 C10.54 4.13, 10.56 4.55, 10.57 4.68 C10.58 4.82, 10.58 4.55, 10.57 4.68" stroke="#1e1e1e" stroke-width="2" fill="none"></path></g><g stroke-linecap="round"><g transform="translate(927.5889290650875 306.3274408348169) rotate(0 28.274664208403237 0)"><path d="M0 0 C9.42 0, 47.12 0, 56.55 0 M0 0 C9.42 0, 47.12 0, 56.55 0" stroke="#1e1e1e" stroke-width="2" fill="none"></path></g></g><mask></mask><g stroke-linecap="round"><g transform="translate(919.4980612658437 344.5922128337586) rotate(0 31.912742772258525 0)"><path d="M0 0 C10.64 0, 53.19 0, 63.83 0 M0 0 C10.64 0, 53.19 0, 63.83 0" stroke="#1e1e1e" stroke-width="2" fill="none"></path></g></g><mask></mask><g transform="translate(1014.4749845176048 69.90287551024662) rotate(0 17.59375 12)"><text x="0" y="0" font-family="Cascadia, Segoe UI Emoji" font-size="20px" fill="#1e1e1e" text-anchor="start" style="white-space: pre;" direction="ltr" dominant-baseline="text-before-edge">1:N</text></g><g transform="translate(1011.0137136612439 148.3583482544153) rotate(0 17.59375 12)"><text x="0" y="0" font-family="Cascadia, Segoe UI Emoji" font-size="20px" fill="#1e1e1e" text-anchor="start" style="white-space: pre;" direction="ltr" dominant-baseline="text-before-edge">N:1</text></g><g transform="translate(1012.1674706133635 229.12133490282426) rotate(0 17.59375 11.999999999999986)"><text x="0" y="0" font-family="Cascadia, Segoe UI Emoji" font-size="20px" fill="#1e1e1e" text-anchor="start" style="white-space: pre;" direction="ltr" dominant-baseline="text-before-edge">N:M</text></g><g transform="translate(1005.0900123260835 292.2080228863923) rotate(0 52.78125 12)"><text x="0" y="0" font-family="Cascadia, Segoe UI Emoji" font-size="20px" fill="#1e1e1e" text-anchor="start" style="white-space: pre;" direction="ltr" dominant-baseline="text-before-edge">0-N o 0-1</text></g><g transform="translate(1006.2437693260845 332.5461344021163) rotate(0 46.91666793823242 12)"><text x="0" y="0" font-family="Cascadia, Segoe UI Emoji" font-size="20px" fill="#1e1e1e" text-anchor="start" style="white-space: pre;" direction="ltr" dominant-baseline="text-before-edge">1-N o  1</text></g><g stroke-linecap="round" transform="translate(844.8727125559458 10.00000009575976) rotate(0 148.83464682349654 188.06238319558082)"><path d="M0 0 C85.73 0, 171.46 0, 297.67 0 M0 0 C104.45 0, 208.91 0, 297.67 0 M297.67 0 C297.67 85.42, 297.67 170.83, 297.67 376.12 M297.67 0 C297.67 133.71, 297.67 267.42, 297.67 376.12 M297.67 376.12 C182.53 376.12, 67.39 376.12, 0 376.12 M297.67 376.12 C224.33 376.12, 150.99 376.12, 0 376.12 M0 376.12 C0 252.53, 0 128.93, 0 0 M0 376.12 C0 251.32, 0 126.51, 0 0" stroke="#1e1e1e" stroke-width="2" fill="none"></path></g><g stroke-linecap="round" transform="translate(844.8727134123064 10) rotate(0 55.49543981608463 13.63814949267831)"><path d="M0 0 C35.09 0, 70.17 0, 110.99 0 M0 0 C40.42 0, 80.84 0, 110.99 0 M110.99 0 C110.99 6.02, 110.99 12.03, 110.99 27.28 M110.99 0 C110.99 8.14, 110.99 16.28, 110.99 27.28 M110.99 27.28 C77.54 27.28, 44.09 27.28, 0 27.28 M110.99 27.28 C72.32 27.28, 33.65 27.28, 0 27.28 M0 27.28 C0 16.6, 0 5.92, 0 0 M0 27.28 C0 17.68, 0 8.08, 0 0" stroke="#1e1e1e" stroke-width="2" fill="none"></path></g><g transform="translate(866.7940946462277 13.461270952120117) rotate(0 32.66666793823242 9.600000000000001)"><text x="0" y="0" font-family="Cascadia, Segoe UI Emoji" font-size="16px" fill="#1e1e1e" text-anchor="start" style="white-space: pre;" direction="ltr" dominant-baseline="text-before-edge">Leyenda</text></g><g transform="translate(188.74536102260026 618.4820942164929) rotate(0 52.78125 12)"><text x="0" y="0" font-family="Cascadia, Segoe UI Emoji" font-size="20px" fill="#1e1e1e" text-anchor="start" style="white-space: pre;" direction="ltr" dominant-baseline="text-before-edge">Pertenece</text></g><g transform="translate(460.8921447601397 616.9810389845475) rotate(0 29.32291603088379 12)"><text x="0" y="0" font-family="Cascadia, Segoe UI Emoji" font-size="20px" fill="#1e1e1e" text-anchor="start" style="white-space: pre;" direction="ltr" dominant-baseline="text-before-edge">Tiene</text></g><g transform="translate(697.8683266676562 616.9810389845475) rotate(0 29.32291603088379 12)"><text x="0" y="0" font-family="Cascadia, Segoe UI Emoji" font-size="20px" fill="#1e1e1e" text-anchor="start" style="white-space: pre;" direction="ltr" dominant-baseline="text-before-edge">Tiene</text></g></svg>